<svg width="52" height="50" viewBox="0 0 52 50" fill="none" xmlns="http://www.w3.org/2000/svg">
<path d="M45.1175 16.5704C45.0571 17.2858 44.6931 17.6772 44.0095 17.8966C43.102 18.1998 42.2504 18.555 41.3549 18.8902C40.6833 19.1416 40.004 18.8853 39.7645 18.2457C39.5251 17.606 39.8493 17.0107 40.5409 16.7153C41.4364 16.3802 42.3439 16.077 43.2275 15.7098C43.8552 15.4384 44.4187 15.4828 44.902 15.9947C44.9738 16.1866 45.0457 16.3785 45.1175 16.5704Z" fill="#909090"/>
<path d="M45.1195 26.123C44.9676 26.1069 44.6439 26.1187 44.3482 26.0106C43.3492 25.5823 42.3822 25.142 41.4033 24.6697C40.7879 24.3896 40.5366 23.7179 40.7967 23.1465C41.0569 22.5751 41.7285 22.3238 42.3319 22.572C43.3428 23.0322 44.3857 23.4806 45.3647 23.9528C45.8162 24.1849 46.0358 24.5768 45.9995 25.0644C45.9952 25.54 45.7152 25.8636 45.1195 26.123Z" fill="#909090"/>
<path d="M38.3845 13.8762C37.7968 14.0597 37.4051 13.9875 37.0576 13.6435C36.7101 13.2996 36.5865 12.8718 36.7546 12.4443C37.223 11.3574 37.7033 10.3025 38.2155 9.23569C38.4557 8.70825 39.1513 8.52084 39.6787 8.76099C40.2062 9.00114 40.5095 9.61686 40.2813 10.1763C39.813 11.2631 39.3127 12.362 38.8004 13.4288C38.7323 13.6366 38.4884 13.7644 38.3845 13.8762Z" fill="#909090"/>
<path d="M24.9183 33.3921C24.5371 35.6861 24.144 37.9481 23.7828 40.1981C23.5541 41.6329 23.3134 43.0356 23.0847 44.4704C22.9242 45.4056 22.4284 45.737 21.5052 45.6085C19.7227 45.3276 17.9842 45.0667 16.2018 44.7858C15.2346 44.6373 14.8712 44.1534 15.0397 43.1423C15.449 40.7284 15.8262 38.3265 16.2354 35.9126C16.2635 35.7928 16.2796 35.6409 16.2956 35.489C15.4044 35.3485 14.5813 35.0003 13.8702 34.4643C13.7703 34.3922 13.5664 34.4321 13.4705 34.468C12.499 34.7951 11.5515 35.1862 10.5681 35.4814C9.04897 35.9041 7.3189 34.9837 6.76826 33.5125C6.1458 31.8494 5.52334 30.1862 4.90089 28.5231C4.24252 26.7641 5.10306 24.8741 6.85015 24.1837C7.64972 23.8845 8.44929 23.5852 9.21688 23.2979C9.44076 23.2141 9.54475 23.1023 9.60086 22.8625C9.99756 21.292 10.9615 20.1655 12.4967 19.5909C14.2558 18.9325 16.0148 18.2741 17.7739 17.6158C17.9978 17.532 18.2297 17.3722 18.3737 17.1725C21.4938 13.2335 24.5499 9.31851 27.638 5.39151C28.1741 4.6804 29.0694 4.63701 29.5486 5.33277C29.6404 5.48072 29.7003 5.64063 29.7482 5.76856C33.3034 15.2675 36.8586 24.7664 40.4138 34.2653C40.5933 34.7451 40.609 35.1767 40.2771 35.5562C39.9451 35.9357 39.5053 36.0274 39.0378 35.9472C34.5018 35.1289 29.9658 34.3106 25.4298 33.4924C25.298 33.4323 25.1461 33.4163 24.9183 33.3921ZM28.2757 8.36162C28.1917 8.42951 28.1717 8.47347 28.1197 8.52939C25.5276 11.8332 22.9675 15.125 20.3873 18.4608C20.3153 18.5607 20.2912 18.7885 20.3391 18.9164C21.8114 22.8503 23.2958 26.8162 24.7681 30.7501C24.8519 30.974 24.9518 31.046 25.1796 31.0701C29.1281 31.7801 33.0766 32.49 36.9811 33.18C37.1769 33.2161 37.3728 33.2522 37.6006 33.2763C34.4883 24.9607 31.388 16.6772 28.2757 8.36162ZM18.2041 19.9343C18.0442 19.9941 17.9162 20.042 17.7883 20.0899C16.413 20.6046 15.0178 21.1633 13.6305 21.646C12.1354 22.1327 11.5389 23.5592 12.0896 25.0304C12.9116 27.1293 13.6696 29.2522 14.4597 31.363C15.0462 32.9302 16.5406 33.6106 18.1078 33.0241C19.4511 32.5213 20.7624 32.0305 22.1057 31.5278C22.2336 31.4799 22.3615 31.432 22.4895 31.3841C21.053 27.5462 19.6405 23.7722 18.2041 19.9343ZM17.4742 42.6322C18.6372 42.8168 19.7882 42.9695 20.9511 43.154C21.4647 40.0448 21.9783 36.9355 22.5239 33.8143C21.2766 34.2811 20.0932 34.724 18.9098 35.1669C18.8139 35.2028 18.7419 35.3027 18.7018 35.3906C18.2926 37.8045 17.8834 40.2184 17.4742 42.6322ZM9.78697 25.6005C9.05136 25.8758 8.33577 26.1072 7.61213 26.4145C7.08039 26.65 6.84024 27.1774 7.04374 27.7211C7.65423 29.3522 8.26472 30.9834 8.8752 32.6145C9.04279 33.0623 9.48625 33.3703 9.88202 33.2586C10.7055 33.0234 11.4812 32.6601 12.2807 32.3609C11.4748 30.1101 10.6369 27.8713 9.78697 25.6005Z" fill="#909090"/>
</svg>
