<svg width="27" height="30" viewBox="0 0 27 30" fill="none" xmlns="http://www.w3.org/2000/svg">
<g clip-path="url(#clip0_61_140)">
<path d="M26.2 21.5C25.9 20 24.7 19 23.1 18.8C22.6 18.8 22.5 18.7 22.5 18.2C22.5 16.5 22.5 14.8 22.5 13.1C22.5 12.6 22.5 12.2 22.4 11.7C21.8 8.10001 19.9 5.50001 16.5 4.10001C16.4 4.10001 16.4 4.00001 16.3 4.00001C16.5 2.70001 16.1 1.60001 15 0.800012C14.6 0.500012 14.1 0.300012 13.6 0.200012C13.3 0.200012 13.1 0.200012 12.8 0.200012C12.7 0.200012 12.7 0.200012 12.6 0.300012C11.1 0.600012 9.99999 1.90001 9.99999 3.50001C9.99999 3.70001 10.1 3.90001 9.99999 4.00001C9.99999 4.20001 9.79999 4.20001 9.59999 4.30001C5.99999 6.00001 4.09999 8.80001 3.99999 12.8C3.99999 14.6 3.99999 16.4 3.99999 18.2C3.99999 18.7 3.89999 18.8 3.49999 18.8C3.39999 18.8 3.29999 18.8 3.19999 18.8C1.69999 19 0.399988 20.3 0.399988 21.8C0.299988 23.7 1.79999 25.2 3.69999 25.2C5.39999 25.2 7.19999 25.2 8.89999 25.2C8.99999 25.2 9.09999 25.2 9.19999 25.2C9.49999 27.6 11.5 28.9 13.3 28.9C14.2 28.9 15.1 28.7 15.8 28.1C16.8 27.4 17.4 26.4 17.6 25.2C17.7 25.2 17.8 25.2 17.9 25.2C19.7 25.2 21.4 25.2 23.2 25.2C25.1 25.4 26.6 23.5 26.2 21.5ZM12.6 2.30001C13 2.00001 13.5 2.00001 14 2.30001C14.4 2.60001 14.6 3.00001 14.6 3.50001C13.7 3.50001 12.9 3.50001 12 3.50001C11.9 3.00001 12.1 2.60001 12.6 2.30001ZM13.4 27.2C12.3 27.2 11.2 26.4 11.1 25.4C12.6 25.4 14.1 25.4 15.6 25.4C15.5 26.3 14.4 27.2 13.4 27.2ZM23 23.5C19.8 23.5 16.5 23.5 13.3 23.5C10.1 23.5 6.89999 23.5 3.59999 23.5C2.99999 23.5 2.59999 23.3 2.29999 22.8C1.79999 22 2.29999 20.9 3.29999 20.7C3.49999 20.7 3.79999 20.7 3.99999 20.6C5.09999 20.4 5.79999 19.5 5.79999 18.4C5.79999 16.5 5.79999 14.5 5.79999 12.6C5.79999 9.30001 8.29999 6.20001 11.6 5.50001C15.6 4.60001 19.1 7.10001 20.3 10.5C20.6 11.3 20.7 12.2 20.7 13.1C20.7 14.9 20.7 16.6 20.7 18.4C20.7 19.5 21.4 20.4 22.5 20.6C22.7 20.6 22.9 20.6 23.1 20.7C23.9 20.8 24.4 21.4 24.4 22.2C24.4 23 23.8 23.5 23 23.5Z" fill="white" stroke="white" stroke-width="0.5" stroke-miterlimit="10"/>
</g>
<defs>
<clipPath id="clip0_61_140">
<rect width="26.5" height="29.3" fill="white"/>
</clipPath>
</defs>
</svg>
