<svg width="27" height="29" viewBox="0 0 27 29" fill="none" xmlns="http://www.w3.org/2000/svg">
<g clip-path="url(#clip0_61_142)">
<path d="M25.2 5.99999C25.1 5.99999 25 5.99999 24.9 5.99999C18 5.99999 11.1 5.99999 4.20001 5.99999C4.00001 5.99999 3.90001 5.99999 3.80001 5.69999C3.60001 4.79999 3.40001 3.89999 3.10001 2.99999C3.00001 2.29999 1.30001 -1.20001 0.300006 0.899991C0.100006 1.19999 0.300006 1.69999 0.500006 1.99999C2.90001 6.09999 3.30001 10.8 4.40001 15.3C4.60001 16.1 4.90001 16.8 5.40001 17.4C5.60001 17.6 5.80001 17.7 5.90001 17.9C5.20001 18.6 4.90001 19.5 5.00001 20.5C5.10001 21.5 5.60001 22.3 6.50001 22.8C5.50001 24.5 6.20001 26.1 7.00001 27C8.00001 28 9.50001 28.2 10.7 27.5C11.3 27.1 11.8 26.6 12.1 26C12.5 25.1 12.4 24.2 12 23.4H16.4C16.3 23.9 16.2 24.3 16.2 24.8C16.2 26.1 16.9 27.1 18.1 27.7C19.3 28.2 20.4 28 21.4 27.2C22.4 26.4 22.7 25.2 22.4 24C22 22.6 20.9 21.7 19.3 21.7C16.8 21.7 14.3 21.7 11.9 21.7C10.8 21.7 9.70001 21.7 8.60001 21.7C7.80001 21.7 7.30001 21.3 7.10001 20.7C6.80001 19.7 7.50001 18.8 8.50001 18.8C9.40001 18.8 10.2 18.8 11.1 18.8C14.1 18.8 17 18.8 20 18.8C22.1 18.8 23.6 17.6 24.1 15.6C24.3 14.6 24.6 13.7 24.8 12.7C25.3 10.9 25.7 9.09999 26.2 7.29999C26.2 6.49999 25.8 6.09999 25.2 5.99999ZM19.2 23.3C20 23.3 20.6 23.9 20.6 24.7C20.6 25.5 20 26.1 19.2 26.1C18.4 26.1 17.8 25.5 17.8 24.7C17.8 23.9 18.5 23.3 19.2 23.3ZM9.20001 23.3C10 23.3 10.6 23.9 10.6 24.7C10.6 25.5 10 26.1 9.20001 26.1C8.40001 26.1 7.80001 25.5 7.80001 24.6C7.80001 23.9 8.40001 23.3 9.20001 23.3ZM23.7 9.29999C23.2 11.3 22.7 13.2 22.2 15.2C21.9 16.4 21 17 19.8 17C16 17 12.3 17 8.50001 17C7.30001 17 6.40001 16.3 6.10001 15.2C5.60001 12.8 5.00001 10.4 4.40001 7.99999C4.40001 7.89999 4.40001 7.89999 4.40001 7.79999H24.1C24 8.29999 23.8 8.79999 23.7 9.29999Z" fill="white" stroke="white" stroke-width="0.5" stroke-miterlimit="10"/>
</g>
<defs>
<clipPath id="clip0_61_142">
<rect width="26.3" height="28.1" fill="white"/>
</clipPath>
</defs>
</svg>
