<svg width="28" height="28" viewBox="0 0 28 28" fill="none" xmlns="http://www.w3.org/2000/svg">
<path d="M19.7334 15.3337C20.7334 15.3337 21.6134 14.787 22.0667 13.9603L26.84 5.30699C26.9524 5.10489 27.0101 4.87696 27.0073 4.64573C27.0045 4.41451 26.9414 4.18802 26.8242 3.98868C26.707 3.78933 26.5398 3.62403 26.3392 3.50915C26.1385 3.39427 25.9113 3.33377 25.68 3.33366H5.94671L4.69337 0.666992H0.333374V3.33366H3.00004L7.80004 13.4537L6.00004 16.707C5.02671 18.4937 6.30671 20.667 8.33337 20.667H24.3334V18.0003H8.33337L9.80004 15.3337H19.7334ZM7.21337 6.00033H23.4134L19.7334 12.667H10.3734L7.21337 6.00033ZM8.33337 22.0003C6.86671 22.0003 5.68004 23.2003 5.68004 24.667C5.68004 26.1337 6.86671 27.3337 8.33337 27.3337C9.80004 27.3337 11 26.1337 11 24.667C11 23.2003 9.80004 22.0003 8.33337 22.0003ZM21.6667 22.0003C20.2 22.0003 19.0134 23.2003 19.0134 24.667C19.0134 26.1337 20.2 27.3337 21.6667 27.3337C23.1334 27.3337 24.3334 26.1337 24.3334 24.667C24.3334 23.2003 23.1334 22.0003 21.6667 22.0003Z" fill="#364772"/>
</svg>
