<svg width="34" height="34" viewBox="0 0 34 34" fill="none" xmlns="http://www.w3.org/2000/svg">
<path d="M6.75436 1.24148C6.01493 0.552478 5.03694 0.177374 4.02641 0.195204C3.01589 0.213033 2.05173 0.622405 1.33707 1.33707C0.622405 2.05173 0.213033 3.01589 0.195204 4.02641C0.177374 5.03694 0.552478 6.01493 1.24148 6.75436L11.4871 17L1.24148 27.2456C0.858252 27.6027 0.550869 28.0334 0.337677 28.5118C0.124485 28.9903 0.00984779 29.5068 0.00060704 30.0306C-0.00863371 30.5543 0.087711 31.0745 0.283892 31.5602C0.480072 32.0459 0.772073 32.4871 1.14247 32.8575C1.51287 33.2279 1.95407 33.5199 2.43977 33.7161C2.92546 33.9123 3.44569 34.0086 3.96943 33.9994C4.49317 33.9902 5.00969 33.8755 5.48816 33.6623C5.96663 33.4491 6.39726 33.1417 6.75436 32.7585L17 22.5129L27.2456 32.7585C27.9851 33.4475 28.9631 33.8226 29.9736 33.8048C30.9841 33.787 31.9483 33.3776 32.6629 32.6629C33.3776 31.9483 33.787 30.9841 33.8048 29.9736C33.8226 28.9631 33.4475 27.9851 32.7585 27.2456L22.5129 17L32.7585 6.75436C33.1417 6.39726 33.4491 5.96663 33.6623 5.48816C33.8755 5.00969 33.9902 4.49317 33.9994 3.96943C34.0086 3.44569 33.9123 2.92546 33.7161 2.43977C33.5199 1.95407 33.2279 1.51287 32.8575 1.14247C32.4871 0.772073 32.0459 0.480072 31.5602 0.283892C31.0745 0.087711 30.5543 -0.00863371 30.0306 0.00060704C29.5068 0.00984779 28.9903 0.124485 28.5118 0.337677C28.0334 0.550869 27.6027 0.858252 27.2456 1.24148L17 11.4871L6.75436 1.24148Z" fill="#525252" fill-opacity="0.8"/>
</svg>
