<svg width="50" height="50" viewBox="0 0 50 50" fill="none" xmlns="http://www.w3.org/2000/svg">
<rect width="50" height="50" rx="12" fill="#364772"/>
<path d="M17.3473 14.7824C17.3473 14.4597 17.3473 14.1832 17.3473 13.9066C17.3473 13.3841 17.7314 13 18.2231 13C18.7455 13 19.1143 13.3841 19.1297 13.9219C19.1297 14.1985 19.1297 14.4751 19.1297 14.7671C20.6202 14.7671 22.0799 14.7671 23.6011 14.7671C23.6011 14.4905 23.6011 14.2139 23.6011 13.9219C23.6011 13.3841 23.9699 13 24.4923 13C25.0148 13 25.3835 13.3841 25.3835 13.9373C25.3835 14.2139 25.3835 14.4751 25.3835 14.7671C26.874 14.7671 28.3337 14.7671 29.8549 14.7671C29.8549 14.4905 29.8549 14.1985 29.8549 13.9219C29.8549 13.3995 30.2237 13.0154 30.7308 13C31.2532 13 31.622 13.3841 31.6374 13.9219C31.6374 14.1985 31.6374 14.4751 31.6374 14.7671C31.7449 14.7671 31.8371 14.7824 31.9293 14.7824C32.7283 14.7824 33.5273 14.7824 34.3264 14.7824C35.8015 14.7824 37 15.9656 37 17.4407C37 23.4179 37 29.3798 37 35.3571C37 36.8168 35.8168 38 34.3571 38C27.7806 38 21.2041 38 14.6275 38C13.1985 38 12 36.8015 12 35.3725C12 29.3952 12 23.4179 12 17.4253C12 15.9809 13.1985 14.7824 14.6429 14.7824C15.5341 14.7824 16.41 14.7824 17.3473 14.7824ZM13.7671 21.0516C13.7671 21.1746 13.7671 21.2821 13.7671 21.3743C13.7671 25.9533 13.7671 30.5476 13.7671 35.1266C13.7671 35.8795 14.1051 36.2176 14.858 36.2176C21.2809 36.2176 27.6884 36.2176 34.1112 36.2176C34.8642 36.2176 35.2022 35.8795 35.2022 35.1266C35.2022 30.5323 35.2022 25.9379 35.2022 21.3436C35.2022 21.2514 35.2022 21.1438 35.2022 21.0363C28.0418 21.0516 20.9275 21.0516 13.7671 21.0516ZM19.1297 16.5802C19.1297 16.8722 19.1297 17.1641 19.1297 17.4561C19.1297 17.9785 18.7455 18.3626 18.2385 18.3626C17.7314 18.3626 17.3473 17.9785 17.3473 17.4561C17.3473 17.1641 17.3473 16.8875 17.3473 16.5802C16.41 16.5802 15.5034 16.5648 14.5968 16.5802C14.1973 16.5956 13.8439 16.8875 13.8132 17.287C13.7671 17.9324 13.7978 18.5778 13.7978 19.2231C20.9428 19.2231 28.0572 19.2231 35.2022 19.2231C35.2022 18.6238 35.2176 18.0246 35.2022 17.4407C35.1868 16.9336 34.8181 16.5802 34.2956 16.5648C34.1266 16.5648 33.9576 16.5648 33.7886 16.5648C33.0817 16.5648 32.3596 16.5648 31.622 16.5648C31.622 16.8722 31.622 17.1641 31.622 17.4561C31.622 17.9785 31.2379 18.3626 30.7308 18.3626C30.2237 18.3626 29.8549 17.9785 29.8396 17.4561C29.8396 17.1641 29.8396 16.8875 29.8396 16.5956C28.3337 16.5956 26.8586 16.5956 25.3682 16.5956C25.3682 16.8875 25.3682 17.1641 25.3682 17.4407C25.3682 17.9631 24.984 18.3473 24.4923 18.3626C23.9699 18.3626 23.6011 17.9785 23.5857 17.4407C23.5857 17.1641 23.5857 16.8722 23.5857 16.5956C22.0799 16.5802 20.6202 16.5802 19.1297 16.5802Z" fill="white"/>
<path d="M25.7831 24.4781C25.7831 25.3079 25.5833 26.2298 25.5218 26.952C25.4296 27.8893 25.3528 28.842 25.2606 29.7793C25.2299 29.9944 25.1684 30.2095 25.0916 30.4246C24.984 30.7012 24.7228 30.8702 24.4462 30.8549C24.1543 30.8549 23.8931 30.6859 23.8162 30.3939C23.7087 29.9329 23.6011 29.472 23.5704 28.9956C23.4628 27.6742 23.4014 26.3681 23.3245 25.0466C23.2938 24.5857 23.2477 24.1247 23.2784 23.6484C23.3092 22.9723 23.8931 22.2194 24.6306 22.3576C25.1223 22.4498 25.5065 22.8801 25.6601 23.3564C25.7523 23.7098 25.7831 24.0786 25.7831 24.4781Z" fill="white"/>
<path d="M24.4771 34.7117C23.8163 34.7117 23.2632 34.1585 23.2478 33.4978C23.2478 32.8371 23.801 32.2686 24.4771 32.2686C25.1378 32.2686 25.7063 32.8217 25.7063 33.4978C25.7063 34.1585 25.1531 34.7117 24.4771 34.7117Z" fill="white"/>
</svg>
