<svg width="50" height="50" viewBox="0 0 50 50" fill="none" xmlns="http://www.w3.org/2000/svg">
<rect width="50" height="50" rx="12" fill="#364772"/>
<path d="M23.6196 11C24.2108 11 24.8276 11 25.4188 11C25.7272 11.0514 26.0613 11.077 26.3697 11.1284C28.9913 11.5135 31.3302 12.4893 33.2836 14.261C37.3445 17.9329 38.8095 22.4778 37.5758 27.7931C36.8047 31.0798 34.9285 33.6732 32.1527 35.599C28.9656 37.7816 25.4702 38.4749 21.692 37.7046C18.8905 37.1397 16.5259 35.7531 14.5983 33.6732C12.7991 31.7217 11.6682 29.4621 11.2056 26.843C11.1285 26.3551 11.0771 25.8673 11 25.3794C11 24.7888 11 24.1726 11 23.582C11.0257 23.5049 11.0514 23.4022 11.0514 23.3252C11.1285 22.786 11.1799 22.2211 11.2827 21.6818C11.8996 18.8573 13.2618 16.4436 15.395 14.4921C17.3227 12.7717 19.5844 11.6676 22.1546 11.2054C22.643 11.1284 23.1313 11.077 23.6196 11ZM35.9052 24.5064C35.9052 18.2154 30.8162 13.1312 24.5192 13.1056C18.2222 13.0799 13.1076 18.1897 13.1076 24.4807C13.1076 30.7717 18.1965 35.8815 24.4935 35.8815C30.7905 35.9072 35.9052 30.7973 35.9052 24.5064Z" fill="white"/>
<path d="M25.5738 21.0916C25.5738 22.016 25.5738 22.9147 25.5738 23.8391C25.5738 24.0188 25.6252 24.0959 25.7537 24.1986C26.936 25.0716 28.1183 25.9703 29.3006 26.8434C29.6604 27.1258 29.8146 27.4853 29.7375 27.9218C29.6604 28.3327 29.3777 28.6151 28.9665 28.7178C28.658 28.7949 28.3753 28.7435 28.1183 28.5381C26.7047 27.4853 25.3168 26.4582 23.9289 25.4054C23.6205 25.1743 23.4919 24.8662 23.4919 24.481C23.4919 22.4268 23.4919 20.3983 23.4919 18.3441C23.4919 17.7022 23.9289 17.24 24.5457 17.24C25.1626 17.24 25.5995 17.7022 25.5995 18.3441C25.5738 19.2685 25.5738 20.1929 25.5738 21.0916Z" fill="white"/>
</svg>
