<svg width="50" height="50" viewBox="0 0 50 50" fill="none" xmlns="http://www.w3.org/2000/svg">
<rect width="50" height="50" rx="12" fill="#364772"/>
<path d="M36 38.2713C28.6577 38.2713 21.3155 38.2713 14 38.2713C14 38.1634 14 38.0285 14 37.9206C14 29.073 14 20.1983 14 11.3507C14 11.2428 14 11.1349 14 11C14.1072 11 14.1876 11 14.268 11C20.1632 11 26.0585 11 31.9537 11C32.0877 11 32.2485 11.0809 32.3557 11.1618C33.4811 12.2948 34.6066 13.4277 35.7588 14.5606C35.9196 14.7225 36 14.8843 36 15.1271C36 22.653 36 30.2059 36 37.7318C36 37.9206 36 38.0824 36 38.2713ZM15.6882 36.5449C21.905 36.5449 28.095 36.5449 34.285 36.5449C34.285 30.125 34.285 23.705 34.285 17.2581C32.8648 17.2581 31.4714 17.2581 30.0512 17.2581C30.0512 15.7205 30.0512 14.21 30.0512 12.7264C25.2546 12.7264 20.458 12.7264 15.6614 12.7264C15.6882 20.6569 15.6882 28.5874 15.6882 36.5449ZM31.7929 13.077C31.7929 13.8863 31.7929 14.7225 31.7929 15.5587C32.6236 15.5587 33.4543 15.5587 34.2582 15.5587C33.4275 14.7225 32.6236 13.8863 31.7929 13.077Z" fill="white"/>
<path d="M18.6626 21.1965C18.6626 20.63 18.6626 20.0905 18.6626 19.551C22.8965 19.551 27.1035 19.551 31.3374 19.551C31.3374 20.0905 31.3374 20.63 31.3374 21.1965C27.1303 21.1965 22.8965 21.1965 18.6626 21.1965Z" fill="white"/>
<path d="M18.6626 25.4582C18.6626 24.8917 18.6626 24.3522 18.6626 23.8127C22.8965 23.8127 27.1035 23.8127 31.3374 23.8127C31.3374 24.3522 31.3374 24.8917 31.3374 25.4582C27.1303 25.4582 22.8965 25.4582 18.6626 25.4582Z" fill="white"/>
<path d="M31.3374 28.075C31.3374 28.6414 31.3374 29.1809 31.3374 29.7204C27.1035 29.7204 22.8965 29.7204 18.6626 29.7204C18.6626 29.1809 18.6626 28.6414 18.6626 28.075C22.8965 28.075 27.1035 28.075 31.3374 28.075Z" fill="white"/>
</svg>
