<svg width="50" height="50" viewBox="0 0 50 50" fill="none" xmlns="http://www.w3.org/2000/svg">
<rect width="50" height="50" rx="12" fill="#364772"/>
<path d="M15 38.9754C15 30.007 15 21.0385 15 12.0455C15.5024 12.0455 16.0048 12.0455 16.5311 12.0455C16.5311 12.6106 16.5311 13.1758 16.5311 13.7655C16.555 13.8392 16.6029 13.9866 16.6746 14.0112C17.7033 14.5763 18.756 15.0186 19.9282 15.1415C21.0048 15.2643 22.0096 15.0186 22.9904 14.5518C23.8517 14.134 24.6651 13.6672 25.5024 13.2003C26.4115 12.7089 27.3445 12.3158 28.3493 12.1192C29.7847 11.8489 31.1962 12.0455 32.5359 12.6352C33.3254 12.9792 34.067 13.4215 34.8325 13.8392C34.9282 13.8883 35 14.0358 35 14.134C35 18.8517 35 23.5939 35 28.3116C35 28.3607 35 28.3853 35 28.4836C34.7129 28.287 34.4498 28.115 34.1627 27.9184C33.2057 27.255 32.177 26.739 31.0766 26.4442C29.5694 26.0265 28.1579 26.2722 26.7943 26.9602C25.8134 27.4762 24.8565 28.0167 23.8756 28.5327C22.7033 29.1224 21.4593 29.4664 20.1435 29.3927C18.9713 29.3436 17.8708 28.975 16.7943 28.5081C16.7225 28.4836 16.6507 28.4344 16.5789 28.4099C16.5789 28.4099 16.555 28.4099 16.5311 28.4344C16.5311 31.9481 16.5311 35.4618 16.5311 39C16.0287 38.9754 15.5024 38.9754 15 38.9754ZM16.555 15.8049V15.8294C16.555 19.3677 16.555 22.8814 16.555 26.4196C16.555 26.4933 16.6507 26.6162 16.7225 26.6653C17.2249 26.911 17.7273 27.1813 18.2536 27.3779C19.1388 27.7219 20.0478 27.8939 21.0048 27.771C21.866 27.6727 22.6555 27.3779 23.3971 26.9847C24.3301 26.4933 25.2632 25.9527 26.2201 25.4859C27.3684 24.8962 28.5646 24.6013 29.8565 24.6505C30.8852 24.6996 31.866 24.9699 32.799 25.363C33.0144 25.4613 33.2297 25.5596 33.4689 25.6579C33.4689 25.5105 33.4689 25.4122 33.4689 25.3139C33.4689 21.9968 33.4689 18.7043 33.4928 15.3872C33.4928 14.9449 33.3732 14.7483 32.9904 14.5518C32.1053 14.134 31.2201 13.7655 30.2392 13.6426C28.9952 13.4952 27.8469 13.79 26.7703 14.3306C25.7656 14.8466 24.8086 15.4117 23.8038 15.9277C22.177 16.7386 20.4545 17.0334 18.6842 16.542C17.9665 16.3454 17.2727 16.0506 16.555 15.8049Z" fill="white" stroke="white" stroke-width="0.5"/>
</svg>
