<svg width="50" height="50" viewBox="0 0 50 50" fill="none" xmlns="http://www.w3.org/2000/svg">
<rect width="50" height="50" rx="12" fill="#364772"/>
<path d="M24.7015 15C31.1963 15.2847 36.0464 18.015 39.3022 23.4755C39.9063 24.4805 39.9063 25.5189 39.3189 26.5407C36.768 30.9459 32.992 33.7097 27.9908 34.6979C20.9926 36.0546 13.944 32.7549 10.4364 26.5407C9.86583 25.5357 9.84905 24.514 10.4197 23.509C13.0041 19.0702 16.8305 16.3232 21.8988 15.335C22.8722 15.1507 23.8791 15.1005 24.7015 15ZM24.7183 16.9095C23.9966 16.9932 23.1239 17.0435 22.2848 17.1942C17.8207 18.0485 14.4474 20.4605 12.1315 24.3632C11.8797 24.7987 11.8629 25.2174 12.1147 25.6529C15.1187 30.9794 21.2611 33.9274 27.2692 32.8722C31.7837 32.0849 35.224 29.6562 37.5904 25.7199C37.8757 25.2342 37.8924 24.7987 37.6071 24.313C34.7038 19.5392 30.4243 17.1607 24.7183 16.9095Z" fill="white"/>
<path d="M30.6593 25.0165C30.6593 28.2157 28.0749 30.7952 24.8694 30.7785C21.664 30.7785 19.0795 28.1822 19.0963 24.9998C19.1131 21.8173 21.6808 19.2545 24.8694 19.2378C28.0581 19.2378 30.6593 21.8173 30.6593 25.0165ZM28.7629 25.0165C28.7629 22.906 27.0008 21.1305 24.8862 21.1305C22.7716 21.1305 20.9927 22.8893 20.9927 24.9998C20.9927 27.1103 22.7548 28.8857 24.8694 28.8857C26.984 28.9025 28.7629 27.1438 28.7629 25.0165Z" fill="white"/>
</svg>
