<svg width="50" height="50" viewBox="0 0 50 50" fill="none" xmlns="http://www.w3.org/2000/svg">
<rect width="50" height="50" rx="12" fill="#364772"/>
<path d="M11 33.7293C11 28.2473 11 22.7586 11 17.2766C11.0528 17.0322 11.0991 16.7812 11.1651 16.5434C11.7728 14.2714 13.2126 12.8117 15.4781 12.1908C15.947 12.0653 16.449 12.0191 16.9378 12.0125C21.9773 11.9993 27.0234 11.9927 32.0695 12.0125C32.6904 12.0125 33.3377 12.105 33.9321 12.3031C36.4486 13.1353 38.0073 15.3414 38.0073 17.9899C38.0073 22.9964 38.0073 28.0095 38.0073 33.016C38.0073 33.2934 37.9875 33.5774 37.9545 33.8548C37.6771 36.2061 35.9202 38.2074 33.6217 38.7953C33.3245 38.8679 33.0272 38.934 32.7366 39C27.248 39 21.7659 39 16.2773 39C16.2245 38.9802 16.165 38.9538 16.1122 38.9472C13.774 38.6433 11.7926 36.8997 11.2114 34.6144C11.1255 34.3238 11.066 34.0265 11 33.7293ZM24.5136 13.6901C22.0433 13.6901 19.5731 13.6901 17.1029 13.6967C16.7859 13.6967 16.4688 13.7166 16.1584 13.776C14.0647 14.1789 12.6842 15.8764 12.6842 18.0494C12.6842 23.0228 12.6842 27.9963 12.6842 32.9698C12.6842 33.2604 12.7041 33.551 12.7569 33.835C13.1532 35.9287 14.8572 37.3224 17.0236 37.3224C22.0037 37.329 26.9904 37.3224 31.9705 37.3224C32.2611 37.3224 32.5517 37.3026 32.8357 37.2431C34.9228 36.8402 36.3099 35.1428 36.3099 32.9962C36.3165 28.0029 36.3165 23.0162 36.3033 18.0229C36.3033 17.5408 36.224 17.0322 36.0721 16.5765C35.4776 14.7932 33.8991 13.7034 31.9705 13.6967C29.487 13.6835 27.0036 13.6901 24.5136 13.6901Z" fill="white"/>
<path d="M21.9839 20.4205C21.9839 19.8657 21.9839 19.3241 21.9839 18.7693C25.3524 18.7693 28.7142 18.7693 32.0827 18.7693C32.0827 19.3241 32.0827 19.8591 32.0827 20.4205C28.7275 20.4205 25.3656 20.4205 21.9839 20.4205Z" fill="white"/>
<path d="M21.9839 26.3253C21.9839 25.7771 21.9839 25.2355 21.9839 24.6741C25.3524 24.6741 28.7076 24.6741 32.0827 24.6741C32.0827 25.2157 32.0827 25.7573 32.0827 26.3253C28.7341 26.3253 25.3722 26.3253 21.9839 26.3253Z" fill="white"/>
<path d="M21.9839 32.2364C21.9839 31.675 21.9839 31.1334 21.9839 30.5786C25.3524 30.5786 28.701 30.5786 32.0761 30.5786C32.0761 31.1202 32.0761 31.6684 32.0761 32.2364C28.7275 32.2364 25.3656 32.2364 21.9839 32.2364Z" fill="white"/>
<path d="M18.5825 17.9107C18.8665 17.9107 19.1439 17.9107 19.4279 17.9107C19.9233 17.9173 20.2799 18.2607 20.2799 18.7495C20.2865 19.3109 20.2865 19.8723 20.2799 20.4337C20.2733 20.9225 19.9233 21.2791 19.4345 21.2791C18.8731 21.2857 18.3117 21.2857 17.7503 21.2791C17.2747 21.2725 16.9181 20.9225 16.9114 20.4535C16.9048 19.8855 16.9048 19.3109 16.9114 18.7429C16.9181 18.2673 17.2681 17.9173 17.7437 17.9107C18.0211 17.904 18.3051 17.9107 18.5825 17.9107Z" fill="white"/>
<path d="M20.2799 25.5394C20.2799 25.8102 20.2865 26.081 20.2799 26.3584C20.2733 26.8339 19.9233 27.1906 19.4477 27.1906C18.8797 27.1972 18.3051 27.1972 17.7371 27.1906C17.2681 27.184 16.9114 26.8273 16.9114 26.3518C16.9048 25.7837 16.9048 25.2091 16.9114 24.6411C16.9181 24.1854 17.2747 23.8287 17.7305 23.8221C18.3117 23.8155 18.8863 23.8155 19.4675 23.8221C19.9233 23.8287 20.2733 24.1854 20.2799 24.6477C20.2865 24.9383 20.2799 25.2421 20.2799 25.5394Z" fill="white"/>
<path d="M20.2799 31.4109C20.2799 31.6883 20.2865 31.9723 20.2799 32.2497C20.2733 32.7253 19.9233 33.0819 19.4543 33.0885C18.8863 33.0951 18.3117 33.0951 17.7437 33.0885C17.2681 33.0819 16.9181 32.7253 16.9114 32.2563C16.9048 31.6883 16.9048 31.1137 16.9114 30.5457C16.9181 30.0767 17.2747 29.7266 17.7503 29.72C18.3117 29.7134 18.8731 29.7134 19.4345 29.72C19.9233 29.7266 20.2733 30.0767 20.2799 30.5655C20.2865 30.8495 20.2799 31.1335 20.2799 31.4109Z" fill="white"/>
</svg>
