<svg width="50" height="50" viewBox="0 0 50 50" fill="none" xmlns="http://www.w3.org/2000/svg">
<rect width="50" height="50" rx="12" fill="#364772"/>
<path d="M35.4545 23.2273C35.4545 31.1819 25.2273 38 25.2273 38C25.2273 38 15 31.1819 15 23.2273C15 20.5148 16.0775 17.9135 17.9955 15.9955C19.9135 14.0775 22.5148 13 25.2273 13C27.9397 13 30.5411 14.0775 32.4591 15.9955C34.377 17.9135 35.4545 20.5148 35.4545 23.2273Z" stroke="white" stroke-width="2" stroke-linecap="round" stroke-linejoin="round"/>
<path d="M25.2272 26.6363C27.11 26.6363 28.6363 25.11 28.6363 23.2272C28.6363 21.3444 27.11 19.8181 25.2272 19.8181C23.3444 19.8181 21.8181 21.3444 21.8181 23.2272C21.8181 25.11 23.3444 26.6363 25.2272 26.6363Z" stroke="white" stroke-width="2" stroke-linecap="round" stroke-linejoin="round"/>
</svg>
