<svg width="54" height="54" viewBox="0 0 54 54" fill="none" xmlns="http://www.w3.org/2000/svg">
<circle cx="27" cy="27" r="27" fill="#E4E4E4"/>
<path d="M32.5237 26.9676C34.9744 25.4022 36.6082 22.7409 36.6082 19.7274C36.6082 14.9136 32.5237 11 27.5407 11C22.5576 11 18.4732 14.9136 18.4732 19.6883C18.4732 22.7018 20.107 25.363 22.5576 26.9285C17.0028 28.9244 13 34.0121 13 40H15.4098C15.4098 33.6208 20.8422 28.4157 27.4998 28.4157C34.1575 28.4157 39.5899 33.6208 39.5899 40H41.9997C42.0405 34.0121 38.0786 28.9244 32.5237 26.9676ZM27.5407 26.0675C23.8647 26.0675 20.883 23.2105 20.883 19.6883C20.883 16.166 23.8647 13.3482 27.5407 13.3482C31.2167 13.3482 34.1984 16.2051 34.1984 19.7274C34.1984 23.2497 31.1759 26.0675 27.5407 26.0675Z" fill="#525252" stroke="#525252" stroke-width="0.5" stroke-miterlimit="10"/>
</svg>
