<svg width="30" height="30" viewBox="0 0 30 30" fill="none" xmlns="http://www.w3.org/2000/svg">
<path d="M29.7428 14.87C29.7428 6.65736 23.0848 0 14.8714 0C6.65799 0 0 6.65736 0 14.87C0 22.2918 5.43743 28.4446 12.5471 29.5595V19.168H8.77083V14.87H12.5471V11.5942C12.5471 7.86679 14.7679 5.80921 18.1652 5.80921C19.7933 5.80921 21.4942 6.1 21.4942 6.1V9.75912H19.6193C17.7708 9.75912 17.1958 10.9047 17.1958 12.081V14.87H21.3201L20.6614 19.168H17.1958V29.5595C24.3055 28.4446 29.7428 22.2918 29.7428 14.87Z" fill="#364772"/>
<path d="M20.6593 19.168L21.3181 14.87H17.1959V12.081C17.1959 10.9046 17.7709 9.75912 19.6194 9.75912H21.4943V6.1C21.4943 6.1 19.7935 5.8092 18.1653 5.8092C14.768 5.8092 12.5472 7.86677 12.5472 11.5942V14.87H8.771V19.168H12.5472V29.5594C13.3051 29.6784 14.0806 29.74 14.8716 29.74C15.6625 29.74 16.438 29.6784 17.1959 29.5594V19.168H20.6593Z" fill="white"/>
</svg>
