<svg width="30" height="30" viewBox="0 0 30 30" fill="none" xmlns="http://www.w3.org/2000/svg">
<path d="M14.9885 2.69757C18.9904 2.69757 19.4628 2.71167 21.0424 2.78573C22.5022 2.85271 23.2955 3.09602 23.8245 3.30054C24.5224 3.57207 25.0231 3.89649 25.5486 4.42189C26.0739 4.94731 26.3983 5.44451 26.6697 6.14623C26.8742 6.67514 27.1175 7.46856 27.1845 8.92842C27.255 10.5082 27.2728 10.9842 27.2728 14.9829C27.2728 18.9817 27.2585 19.4577 27.1845 21.0375C27.1175 22.4973 26.8742 23.2907 26.6697 23.8196C26.3983 24.5178 26.0739 25.0185 25.5486 25.5439C25.0231 26.0695 24.5261 26.3939 23.8245 26.6653C23.2955 26.8698 22.5022 27.1132 21.0424 27.1801C19.4628 27.2506 18.9904 27.2682 14.9885 27.2682C10.9867 27.2682 10.5142 27.2542 8.93458 27.1801C7.47487 27.1132 6.68155 26.8698 6.15267 26.6653C5.45453 26.3939 4.95387 26.0695 4.4285 25.5439C3.90315 25.0185 3.57877 24.5213 3.30729 23.8196C3.10276 23.2907 2.85948 22.4973 2.7925 21.0375C2.72198 19.4577 2.70435 18.9817 2.70435 14.9829C2.70435 10.9842 2.71845 10.5082 2.7925 8.92842C2.85948 7.46856 3.10276 6.67514 3.30729 6.14623C3.57877 5.44802 3.90315 4.94731 4.4285 4.42189C4.95387 3.89649 5.45102 3.57207 6.15267 3.30054C6.68155 3.09602 7.47487 2.85271 8.93458 2.78573C10.5142 2.7152 10.9867 2.69757 14.9885 2.69757ZM14.9885 0C10.9196 0 10.4084 0.0176312 8.81116 0.0916821C7.21749 0.165733 6.12798 0.416097 5.17247 0.789877C4.18875 1.17423 3.35312 1.68554 2.51749 2.51773C1.68537 3.34991 1.17059 4.18563 0.789796 5.17298C0.41958 6.12505 0.165716 7.21466 0.0916723 8.81204C0.0176288 10.4094 0 10.9207 0 14.99C0 19.0593 0.0176288 19.5706 0.0916723 21.1679C0.165716 22.7618 0.416053 23.8514 0.789796 24.807C1.17412 25.7908 1.68537 26.6265 2.51749 27.4624C3.34958 28.2946 4.18521 28.8094 5.17247 29.1902C6.12445 29.5603 7.21395 29.8142 8.81116 29.8884C10.4084 29.9624 10.9196 29.98 14.9885 29.98C19.0574 29.98 19.5686 29.9624 21.1659 29.8884C22.7595 29.8142 23.8491 29.5638 24.8046 29.1902C25.7882 28.8059 26.6238 28.2946 27.4597 27.4624C28.2918 26.63 28.8065 25.7943 29.1873 24.807C29.5574 23.8549 29.8112 22.7653 29.8855 21.1679C29.9595 19.5706 29.977 19.0593 29.977 14.99C29.977 10.9207 29.9595 10.4094 29.8855 8.81204C29.8112 7.2182 29.5609 6.12859 29.1873 5.17298C28.803 4.18917 28.2918 3.35345 27.4597 2.51773C26.6273 1.68554 25.7917 1.17071 24.8046 0.789877C23.8526 0.419622 22.7631 0.165733 21.1659 0.0916821C19.5686 0.014105 19.0574 0 14.9885 0Z" fill="#364772"/>
<path d="M14.9889 7.28882C10.7402 7.28882 7.29541 10.7339 7.29541 14.983C7.29541 19.2321 10.7402 22.6773 14.9889 22.6773C19.2376 22.6773 22.6824 19.2321 22.6824 14.983C22.6824 10.7339 19.2376 7.28882 14.9889 7.28882ZM14.9889 19.9797C12.2316 19.9797 9.99271 17.7441 9.99271 14.983C9.99271 12.222 12.2281 9.98636 14.9889 9.98636C17.7496 9.98636 19.9851 12.222 19.9851 14.983C19.9851 17.7441 17.7461 19.9797 14.9889 19.9797Z" fill="#364772"/>
<path d="M22.9891 8.78377C23.9822 8.78377 24.7874 7.97862 24.7874 6.98539C24.7874 5.99219 23.9822 5.18701 22.9891 5.18701C21.996 5.18701 21.1909 5.99219 21.1909 6.98539C21.1909 7.97862 21.996 8.78377 22.9891 8.78377Z" fill="#364772"/>
</svg>
