<svg width="30" height="30" viewBox="0 0 30 30" fill="none" xmlns="http://www.w3.org/2000/svg">
<g clip-path="url(#clip0_29_1304)">
<path d="M29.7428 14.8714C29.7428 6.65799 23.0848 0 14.8714 0C6.65799 0 0 6.65799 0 14.8714C0 22.2939 5.43743 28.4473 12.5471 29.5623V19.1698H8.77083V14.8714H12.5471V11.5953C12.5471 7.86754 14.7679 5.80976 18.1652 5.80976C19.7933 5.80976 21.4942 6.10058 21.4942 6.10058V9.76005H19.6193C17.7708 9.76005 17.1958 10.9057 17.1958 12.0822V14.8714H21.3201L20.6614 19.1698H17.1958V29.5623C24.3055 28.4473 29.7428 22.2939 29.7428 14.8714Z" fill="white"/>
<path d="M20.6591 19.1698L21.3178 14.8714H17.1957V12.0823C17.1957 10.9057 17.7707 9.76011 19.6192 9.76011H21.4941V6.10064C21.4941 6.10064 19.7932 5.80981 18.1651 5.80981C14.7678 5.80981 12.547 7.86757 12.547 11.5953V14.8714H8.77075V19.1698H12.547V29.5623C13.3049 29.6813 14.0804 29.7429 14.8713 29.7429C15.6623 29.7429 16.4378 29.6813 17.1957 29.5623V19.1698H20.6591Z" fill="#364772"/>
</g>
<defs>
<clipPath id="clip0_29_1304">
<rect width="29.7428" height="29.7428" fill="white"/>
</clipPath>
</defs>
</svg>
