<svg width="18" height="14" viewBox="0 0 18 14" fill="none" xmlns="http://www.w3.org/2000/svg">
<path d="M8.74985 10.9375C6.67585 10.9375 4.99696 9.33213 4.84247 7.29777L1.97414 5.08104C1.59707 5.55408 1.25008 6.05419 0.970087 6.60106C0.907537 6.72479 0.874947 6.86149 0.874947 7.00014C0.874947 7.13878 0.907537 7.27548 0.970087 7.39922C2.45292 10.2924 5.38852 12.2499 8.74985 12.2499C9.48566 12.2499 10.1955 12.1406 10.8796 11.9639L9.46078 10.8661C9.22645 10.9114 8.9885 10.9352 8.74985 10.9375ZM17.3308 12.5261L14.308 10.1899C15.2262 9.41604 15.9814 8.46733 16.5296 7.39894C16.5922 7.27521 16.6248 7.13851 16.6248 6.99986C16.6248 6.86122 16.5922 6.72452 16.5296 6.60079C15.0468 3.70757 12.1112 1.75005 8.74985 1.75005C7.34207 1.75176 5.95716 2.10617 4.72161 2.7809L1.24297 0.0922193C1.19761 0.0569209 1.14574 0.0309071 1.09032 0.0156644C1.0349 0.000421713 0.97702 -0.00375112 0.919987 0.00338436C0.862954 0.0105198 0.807886 0.0288238 0.75793 0.0572502C0.707973 0.0856767 0.664108 0.123668 0.628841 0.169054L0.0920883 0.860024C0.0208855 0.95162 -0.01102 1.06775 0.00338898 1.18287C0.0177979 1.29798 0.0773413 1.40266 0.168923 1.47388L16.2567 13.9078C16.3021 13.9431 16.354 13.9691 16.4094 13.9843C16.4648 13.9996 16.5227 14.0038 16.5797 13.9966C16.6367 13.9895 16.6918 13.9712 16.7418 13.9428C16.7917 13.9143 16.8356 13.8763 16.8709 13.8309L17.4079 13.14C17.4791 13.0483 17.5109 12.9322 17.4965 12.8171C17.482 12.702 17.4224 12.5973 17.3308 12.5261ZM12.3072 8.64334L11.2326 7.81265C11.3231 7.5511 11.3711 7.27674 11.3748 7C11.3802 6.59484 11.2904 6.19408 11.1128 5.8299C10.9351 5.46573 10.6745 5.14829 10.3519 4.90309C10.0294 4.65789 9.65377 4.49176 9.25534 4.41805C8.85691 4.34434 8.44674 4.3651 8.05779 4.47866C8.22267 4.70208 8.31186 4.97234 8.31235 5.25002C8.30828 5.34242 8.29416 5.4341 8.27025 5.52345L6.25749 3.96788C6.95666 3.38361 7.83869 3.06321 8.74985 3.06254C9.26701 3.06225 9.77915 3.1639 10.257 3.36168C10.7348 3.55945 11.169 3.84947 11.5347 4.21515C11.9004 4.58084 12.1904 5.01502 12.3882 5.49286C12.5859 5.9707 12.6876 6.48284 12.6873 7C12.6873 7.59144 12.5427 8.14268 12.3072 8.64362V8.64334Z" fill="#525252"/>
</svg>
