<svg width="28" height="28" viewBox="0 0 28 28" fill="none" xmlns="http://www.w3.org/2000/svg">
<path d="M11.9972 2.00421C8.63955 2.00421 5.34081 2.00421 2.02244 2.00421C2.02244 10.0014 2.02244 17.9789 2.02244 25.9958C2.14025 25.9958 2.25806 25.9958 2.37588 25.9958C4.57503 25.9958 6.79383 25.9958 8.99299 25.9958C9.48387 25.9958 9.91585 26.3691 9.97475 26.8211C10.0533 27.3319 9.75876 27.7839 9.28752 27.9411C9.1697 27.9804 9.05189 27.9803 8.91445 27.9803C6.59748 27.9803 4.30014 27.9803 1.98317 27.9803C0.863955 28 0 27.1158 0 25.9958C0 17.9986 0 10.0014 0 2.00421C0 0.884211 0.88359 0 2.0028 0C5.65498 0 9.28752 0 12.9397 0C13.2539 0 13.5288 0.0982456 13.7447 0.334035C15.7083 2.29895 17.6914 4.28351 19.655 6.24842C19.871 6.46456 19.9888 6.73965 19.9888 7.05404C19.9888 9.01895 19.9888 10.9642 19.9888 12.9291C19.9888 13.5579 19.5764 13.9902 18.9874 13.9902C18.418 13.9902 18.0056 13.5382 18.0056 12.9291C18.0056 11.4161 18.0056 9.88351 18.0056 8.37053C18.0056 8.25263 18.0056 8.13474 18.0056 7.99719C17.8682 7.99719 17.77 7.99719 17.6522 7.99719C16.4544 7.99719 15.237 7.99719 14.0393 7.99719C12.8808 7.99719 12.0168 7.13263 12.0168 5.95368C12.0168 4.75509 12.0168 3.55649 12.0168 2.35789C11.9972 2.25965 11.9972 2.14175 11.9972 2.00421ZM14.0196 3.51719C14.0196 4.34246 14.0196 5.16772 14.0196 5.97333C14.864 5.97333 15.6886 5.97333 16.4741 5.97333C15.6494 5.14807 14.8247 4.34246 14.0196 3.51719Z" fill="#525252"/>
<path d="M25.0351 12.0055C26.1936 12.0055 27.2539 12.6932 27.7448 13.8329C28.2357 15.0118 27.9804 16.3873 27.0772 17.2911C25.31 19.0792 23.5232 20.8476 21.7364 22.6357C20.5386 23.8343 19.3409 25.0132 18.1627 26.2118C17.7308 26.6441 17.2399 26.9388 16.6508 27.0764C15.5316 27.3515 14.4124 27.6462 13.3128 27.9409C12.4489 28.1571 11.7813 27.5283 11.9973 26.6638C12.3114 25.4259 12.6452 24.1683 12.9987 22.9304C13.0968 22.5964 13.2932 22.282 13.5288 22.0266C16.5527 18.9809 19.5961 15.9353 22.6396 12.8897C23.2679 12.3002 24.0337 11.9859 25.0351 12.0055ZM22.5022 15.9943C20.6564 17.8413 18.8107 19.6883 17.0043 21.4764C17.4951 21.9676 18.0253 22.4981 18.4965 22.9697C20.303 21.162 22.1487 19.315 23.9748 17.4876C23.5036 16.9964 22.993 16.4855 22.5022 15.9943ZM17.0239 24.522C16.4937 23.9915 15.9832 23.4806 15.4531 22.9501C15.1193 23.2252 14.8247 23.5395 14.7462 24.0308C14.6677 24.5416 14.5106 25.0329 14.3731 25.5831C14.9426 25.4455 15.4334 25.2883 15.9243 25.2097C16.4348 25.1508 16.749 24.856 17.0239 24.522ZM25.5064 16.0532C25.9187 15.7192 26.0758 15.2869 25.9383 14.7564C25.8205 14.3438 25.5456 14.108 25.1333 14.0294C24.6424 13.9508 24.2301 14.0883 23.9552 14.4813C24.4657 14.9922 24.9762 15.5227 25.5064 16.0532Z" fill="#525252"/>
<path d="M9.99432 15.9944C8.32531 15.9944 6.67594 15.9944 5.00694 15.9944C4.51605 15.9944 4.08408 15.6408 4.00554 15.1692C3.92699 14.6583 4.22152 14.1671 4.71241 14.0295C4.81058 13.9902 4.9284 13.9902 5.04621 13.9902C8.34495 13.9902 11.6437 13.9902 14.9424 13.9902C15.5511 13.9902 15.9831 14.4029 15.9831 14.9727C15.9831 15.5622 15.5511 15.9748 14.9228 15.9748C13.2734 15.9944 11.6437 15.9944 9.99432 15.9944Z" fill="#525252"/>
<path d="M8.97346 20.0029C7.67753 20.0029 6.3816 20.0029 5.06603 20.0029C4.41806 20.0029 3.98608 19.5902 3.98608 19.0204C3.98608 18.4113 4.41806 18.0183 5.08566 18.0183C7.7168 18.0183 10.3479 18.0183 12.9791 18.0183C13.47 18.0183 13.9019 18.372 13.9805 18.8436C14.059 19.3545 13.7645 19.8457 13.2736 19.9832C13.1558 20.0225 13.038 20.0225 12.9005 20.0225C11.6046 20.0029 10.289 20.0029 8.97346 20.0029Z" fill="#525252"/>
<path d="M7.50071 12.0057C6.67602 12.0057 5.85134 12.0057 5.04629 12.0057C4.43759 12.0057 4.00562 11.5734 4.00562 11.0036C4.00562 10.4337 4.43759 10.0015 5.04629 10.0015C6.67602 10.0015 8.30576 10.0015 9.93549 10.0015C10.5442 10.0015 10.9762 10.4141 10.9958 10.9839C10.9958 11.5734 10.5638 11.986 9.93549 11.986C9.1108 12.0057 8.30576 12.0057 7.50071 12.0057Z" fill="#525252"/>
</svg>
