<svg width="31" height="30" viewBox="0 0 31 30" fill="none" xmlns="http://www.w3.org/2000/svg">
<g clip-path="url(#clip0_29_1308)">
<path d="M15.5 2.6973C19.5019 2.6973 19.9743 2.7114 21.5539 2.78545C23.0136 2.85243 23.807 3.09571 24.336 3.30021C25.0339 3.57172 25.5346 3.8961 26.0601 4.42145C26.5854 4.94682 26.9098 5.44397 27.1812 6.14562C27.3856 6.67448 27.629 7.46782 27.696 8.92753C27.7664 10.5071 27.7842 10.9831 27.7842 14.9815C27.7842 18.9798 27.77 19.4558 27.696 21.0354C27.629 22.4951 27.3856 23.2884 27.1812 23.8172C26.9098 24.5154 26.5854 25.0161 26.0601 25.5414C25.5346 26.0669 25.0376 26.3913 24.336 26.6627C23.807 26.8671 23.0136 27.1105 21.5539 27.1775C19.9743 27.2479 19.5019 27.2655 15.5 27.2655C11.4981 27.2655 11.0256 27.2515 9.44606 27.1775C7.98634 27.1105 7.19303 26.8671 6.66414 26.6627C5.96601 26.3913 5.46534 26.0669 4.93997 25.5414C4.41462 25.0161 4.09024 24.5189 3.81876 23.8172C3.61424 23.2884 3.37096 22.4951 3.30398 21.0354C3.23346 19.4558 3.21582 18.9798 3.21582 14.9815C3.21582 10.9831 3.22992 10.5071 3.30398 8.92753C3.37096 7.46782 3.61424 6.67448 3.81876 6.14562C4.09024 5.44748 4.41462 4.94682 4.93997 4.42145C5.46534 3.8961 5.96249 3.57172 6.66414 3.30021C7.19303 3.09571 7.98634 2.85243 9.44606 2.78545C11.0256 2.71494 11.4981 2.6973 15.5 2.6973ZM15.5 0C11.4311 0 10.9199 0.0176295 9.32264 0.091673C7.72896 0.165717 6.63946 0.416055 5.68394 0.789799C4.70023 1.17412 3.86459 1.68537 3.02896 2.51749C2.19684 3.34958 1.68207 4.18521 1.30127 5.17247C0.931055 6.12445 0.67719 7.21395 0.603147 8.81116C0.529103 10.4084 0.511475 10.9196 0.511475 14.9885C0.511475 19.0574 0.529103 19.5686 0.603147 21.1658C0.67719 22.7595 0.927528 23.8491 1.30127 24.8046C1.68559 25.7882 2.19684 26.6238 3.02896 27.4597C3.86106 28.2918 4.69669 28.8065 5.68394 29.1873C6.63592 29.5574 7.72542 29.8112 9.32264 29.8855C10.9199 29.9595 11.4311 29.977 15.5 29.977C19.5689 29.977 20.0801 29.9595 21.6773 29.8855C23.271 29.8112 24.3605 29.5609 25.3161 29.1873C26.2997 28.803 27.1353 28.2918 27.9711 27.4597C28.8032 26.6273 29.318 25.7917 29.6988 24.8046C30.0688 23.8526 30.3227 22.7631 30.3969 21.1658C30.4709 19.5686 30.4885 19.0574 30.4885 14.9885C30.4885 10.9196 30.4709 10.4084 30.3969 8.81116C30.3227 7.21748 30.0723 6.12798 29.6988 5.17247C29.3145 4.18875 28.8032 3.35312 27.9711 2.51749C27.1388 1.68537 26.3032 1.17059 25.3161 0.789799C24.3641 0.41958 23.2746 0.165717 21.6773 0.091673C20.0801 0.0141036 19.5689 0 15.5 0Z" fill="white"/>
<path d="M15.5001 7.28796C11.2514 7.28796 7.80664 10.7327 7.80664 14.9814C7.80664 19.2301 11.2514 22.6749 15.5001 22.6749C19.7488 22.6749 23.1936 19.2301 23.1936 14.9814C23.1936 10.7327 19.7488 7.28796 15.5001 7.28796ZM15.5001 19.9776C12.7429 19.9776 10.5039 17.7422 10.5039 14.9814C10.5039 12.2207 12.7394 9.98524 15.5001 9.98524C18.2609 9.98524 20.4963 12.2207 20.4963 14.9814C20.4963 17.7422 18.2574 19.9776 15.5001 19.9776Z" fill="white"/>
<path d="M23.5003 8.78292C24.4934 8.78292 25.2986 7.97785 25.2986 6.98472C25.2986 5.99162 24.4934 5.18652 23.5003 5.18652C22.5072 5.18652 21.7021 5.99162 21.7021 6.98472C21.7021 7.97785 22.5072 8.78292 23.5003 8.78292Z" fill="white"/>
</g>
<defs>
<clipPath id="clip0_29_1308">
<rect width="29.977" height="29.977" fill="white" transform="translate(0.511475)"/>
</clipPath>
</defs>
</svg>
