<svg width="30" height="30" viewBox="0 0 30 30" fill="none" xmlns="http://www.w3.org/2000/svg">
<g clip-path="url(#clip0_29_1313)">
<path d="M26.2528 0H3.77008C1.7006 0 0.0229492 1.67765 0.0229492 3.74713V26.2299C0.0229492 28.2994 1.7006 29.977 3.77008 29.977H26.2528C28.3223 29.977 30 28.2994 30 26.2299V3.74713C30 1.67765 28.3223 0 26.2528 0Z" fill="white"/>
<path d="M26.6328 13.4481C26.6328 8.22909 21.3985 3.98132 14.9673 3.98132C8.53603 3.98132 3.30176 8.22909 3.30176 13.4481C3.30176 18.127 7.45063 22.0477 13.0577 22.7882C13.4381 22.8693 13.9554 23.0392 14.0848 23.3638C14.2014 23.658 14.1608 24.1196 14.1228 24.4189C14.1228 24.4189 13.9859 25.243 13.9554 25.4179C13.9047 25.7121 13.7221 26.5718 14.9647 26.047C16.2099 25.5219 21.6826 22.0908 24.1297 19.2733C25.8239 17.4195 26.6328 15.5378 26.6328 13.4481Z" fill="#364772"/>
<path d="M12.5959 10.9248H11.7768C11.6525 10.9248 11.5486 11.0263 11.5486 11.1505V16.2352C11.5486 16.3594 11.65 16.4609 11.7768 16.4609H12.5959C12.7202 16.4609 12.8242 16.3594 12.8242 16.2352V11.1531C12.8242 11.0263 12.7227 10.9248 12.5959 10.9248Z" fill="white"/>
<path d="M18.2284 10.9249H17.4093C17.2824 10.9249 17.181 11.0263 17.181 11.1506V14.1709L14.8504 11.0263C14.8454 11.0187 14.8403 11.0111 14.8327 11.0035C14.8327 11.0035 14.8327 11.0035 14.8302 11.0009C14.8251 10.9959 14.82 10.9908 14.8175 10.9857C14.8149 10.9832 14.8149 10.9832 14.8124 10.9807C14.8073 10.9781 14.8048 10.9731 14.7997 10.9705C14.7972 10.968 14.7947 10.968 14.7947 10.9654C14.7896 10.9629 14.787 10.9604 14.782 10.9579C14.7794 10.9553 14.7769 10.9553 14.7744 10.9528C14.7693 10.9502 14.7668 10.9477 14.7617 10.9452C14.7592 10.9452 14.7566 10.9426 14.7541 10.9426C14.749 10.9401 14.7465 10.9376 14.7414 10.9376C14.7389 10.9376 14.7363 10.935 14.7338 10.935C14.7287 10.9325 14.7262 10.9325 14.7211 10.9299C14.7186 10.9299 14.716 10.9274 14.7135 10.9274C14.7084 10.9274 14.7059 10.9249 14.7008 10.9249C14.6983 10.9249 14.6932 10.9249 14.6907 10.9224C14.6856 10.9224 14.6831 10.9224 14.678 10.9198C14.6729 10.9198 14.6704 10.9198 14.6653 10.9198C14.6628 10.9198 14.6603 10.9198 14.6577 10.9198H13.8386C13.7143 10.9198 13.6104 11.0213 13.6104 11.1455V16.2352C13.6104 16.3595 13.7118 16.4609 13.8386 16.4609H14.6577C14.7845 16.4609 14.8859 16.3595 14.8859 16.2352V13.2174L17.219 16.3671C17.2343 16.3899 17.2546 16.4077 17.2774 16.4229C17.2774 16.4229 17.2799 16.4229 17.2799 16.4254C17.285 16.428 17.2901 16.4305 17.2951 16.433C17.2977 16.4356 17.3002 16.4356 17.3027 16.4356C17.3053 16.4381 17.3103 16.4381 17.3129 16.4406C17.3154 16.4432 17.3205 16.4432 17.323 16.4457C17.3256 16.4457 17.3281 16.4482 17.3306 16.4482C17.3357 16.4508 17.3408 16.4508 17.3458 16.4533H17.3484C17.3661 16.4584 17.3864 16.4609 17.4067 16.4609H18.2258C18.3526 16.4609 18.4541 16.3595 18.4541 16.2352V11.1531C18.4566 11.0263 18.3552 10.9249 18.2284 10.9249Z" fill="white"/>
<path d="M10.6256 15.1903H8.40157V11.1531C8.40157 11.0288 8.30014 10.9248 8.17335 10.9248H7.35422C7.22996 10.9248 7.12598 11.0263 7.12598 11.1531V16.2352C7.12598 16.296 7.15134 16.3518 7.18937 16.3924L7.1919 16.3949L7.19446 16.3975C7.23502 16.4355 7.29083 16.4609 7.35167 16.4609H10.6206C10.7448 16.4609 10.8463 16.3594 10.8463 16.2326V15.4135C10.8513 15.2918 10.7499 15.1903 10.6256 15.1903Z" fill="white"/>
<path d="M22.7475 12.198C22.8718 12.198 22.9732 12.0965 22.9732 11.9697V11.1506C22.9732 11.0238 22.8718 10.9224 22.7475 10.9224H19.4786C19.4178 10.9224 19.362 10.9477 19.3214 10.9858L19.3189 10.9883C19.3164 10.9908 19.3163 10.9908 19.3163 10.9934C19.2783 11.0339 19.2529 11.0897 19.2529 11.1506V16.2353C19.2529 16.2961 19.2783 16.3519 19.3163 16.3925L19.3189 16.395L19.3214 16.3975C19.362 16.4356 19.4178 16.4609 19.4786 16.4609H22.7475C22.8718 16.4609 22.9732 16.3595 22.9732 16.2327V15.4136C22.9732 15.2893 22.8718 15.1854 22.7475 15.1854H20.5235V14.3256H22.7475C22.8718 14.3256 22.9732 14.2242 22.9732 14.0974V13.2783C22.9732 13.1515 22.8718 13.0501 22.7475 13.0501H20.5235V12.1903H22.7475V12.198Z" fill="white"/>
</g>
<defs>
<clipPath id="clip0_29_1313">
<rect width="29.977" height="29.977" fill="white" transform="translate(0.0229492)"/>
</clipPath>
</defs>
</svg>
