<svg width="131" height="29" viewBox="0 0 131 29" fill="none" xmlns="http://www.w3.org/2000/svg">
<path d="M7.54 5.69H9.94L11.02 4.31C11.02 4.31 12.31 5.33 13.06 6.08C13 6.41 12.73 6.56 12.31 6.56H7.54V5.69ZM7.45 8.87H10L11.11 7.43C11.11 7.43 12.37 8.45 13.15 9.26C13.09 9.59 12.79 9.74 12.43 9.74H7.45V8.87ZM5.02 11.93H27.07V12.8H5.02V11.93ZM25.51 11.93H25.18L27.01 10.16L30.13 13.16C29.89 13.4 29.62 13.46 28.99 13.49C27.85 14.15 25.93 15.2 24.67 15.74L24.4 15.53C24.73 14.6 25.24 12.89 25.51 11.93ZM13.6 2.24C19.84 2.45 19.3 6.44 17.17 5.72C16.42 4.67 14.65 3.26 13.36 2.54L13.6 2.24ZM13.72 7.34C20.32 7.85 19.54 12.23 17.26 11.3C16.6 10.01 14.83 8.45 13.45 7.61L13.72 7.34ZM11.11 0.499999L13.81 2.54C13.63 2.75 13.33 2.78 12.88 2.63C11.71 2.99 9.46 3.44 7.57 3.59L7.39 3.29C8.68 2.57 10.33 1.22 11.11 0.499999ZM19.81 5.69H24.94V6.56H20.08L19.81 5.69ZM19.69 8.87H24.79V9.74H19.96L19.69 8.87ZM19.51 2.51H25.03V3.35H19.78L19.51 2.51ZM6.01 1.85L10.15 2.66C10.09 2.96 9.76 3.14 9.16 3.26L9.43 12.38H6.31L6.01 1.85ZM22.75 2.51H22.48L23.8 0.949999L26.92 3.35C26.68 3.59 26.44 3.68 25.87 3.77L25.45 12.38H22.27L22.75 2.51ZM2.59 20.54H24.07L25.96 18.02C25.96 18.02 28.06 19.73 29.32 20.9C29.23 21.23 28.9 21.38 28.48 21.38H2.83L2.59 20.54ZM14.32 18.14L18.79 18.53C18.7 18.98 18.43 19.19 17.77 19.28V24.53C17.77 26.96 17.23 28.31 13.21 28.7C13.09 27.56 12.94 26.78 12.46 26.21C11.95 25.7 11.26 25.31 9.67 25.04V24.65C9.67 24.65 13.09 24.86 13.72 24.86C14.17 24.86 14.32 24.71 14.32 24.35V18.14ZM19.96 15.47H19.6L21.55 13.64L24.76 16.49C24.49 16.73 24.19 16.82 23.56 16.85C21.64 17.6 18.76 18.65 16.45 19.16H16.03C17.38 18.17 19.12 16.4 19.96 15.47ZM8.2 15.47H21.97V16.31H8.44L8.2 15.47ZM4.81 10.01L5.17 9.98C6.61 12.95 6.49 15.65 4.45 16.52C2.17 17.48 0.64 14.57 3.19 13.25C4 12.86 4.84 11.72 4.81 10.01ZM16.99 0.739998L19.78 2.15C19.63 2.45 19.33 2.51 18.79 2.36C17.65 3.83 15.25 5.39 13.06 6.29L12.76 5.87C14.5 4.55 16.18 2.45 16.99 0.739998ZM17.41 5.99L20.23 7.34C20.08 7.64 19.75 7.7 19.24 7.58C17.95 9.29 15.28 10.94 12.7 11.72L12.43 11.3C14.53 10.01 16.51 7.91 17.41 5.99ZM57.34 2.45L58.87 0.739998L62.14 3.23C61.96 3.47 61.54 3.71 60.91 3.86V13.43C60.88 13.64 59.26 14.27 58.18 14.27H57.64V2.45H57.34ZM44.05 2.42L45.61 0.709998L48.79 3.17C48.61 3.41 48.19 3.68 47.56 3.8V12.92C47.53 13.19 46.03 13.97 44.86 13.97H44.35V2.42H44.05ZM51.85 14.03C51.73 14.51 51.31 14.75 50.68 14.78C49.9 15.41 48.64 16.31 47.83 16.88H46.48C46.66 15.95 46.93 14.33 47.05 13.25L51.85 14.03ZM43.21 27.47C43.21 27.83 41.71 28.61 40.27 28.61H39.73V14.78L43.45 16.25H57.04V17.12H43.21V27.47ZM54.46 16.25L56.05 14.48L59.44 17.03C59.26 17.27 58.87 17.54 58.27 17.66V27.59C58.24 27.83 56.5 28.46 55.33 28.46H54.76V16.25H54.46ZM56.86 25.58V26.42H41.29V25.58H56.86ZM56.83 20.81V21.68H41.26V20.81H56.83ZM48.88 10.19C50.68 9.83 54.91 8.84 59.17 7.76L59.26 8.12C57.61 9.23 55.15 10.82 51.55 12.86C51.46 13.25 51.19 13.52 50.89 13.61L48.88 10.19ZM59.2 2.45V3.32H49.36L49.09 2.45H59.2ZM50.14 3.89C57.43 4.55 55.12 9.89 52.33 8.06C52.06 6.65 50.89 5.03 49.87 4.1L50.14 3.89ZM35.41 11.21C37.24 10.79 41.59 9.56 45.94 8.24L46.06 8.6C44.32 9.8 41.71 11.57 38.02 13.76C37.9 14.18 37.66 14.48 37.33 14.6L35.41 11.21ZM46.06 2.42V3.26H36.13L35.86 2.42H46.06ZM37.33 3.92C44.53 4.91 42.07 10.13 39.37 8.21C39.13 6.8 38.05 5.12 37.06 4.13L37.33 3.92ZM72.07 5.57C80.77 9.83 77.23 16.85 73.93 13.67C73.84 11 72.79 8.03 71.74 5.72L72.07 5.57ZM67.93 16.46H90.19L92.29 13.85C92.29 13.85 94.66 15.59 96.13 16.82C96.04 17.15 95.71 17.3 95.26 17.3H68.17L67.93 16.46ZM69.25 3.05H88.93L91.06 0.499999C91.06 0.499999 93.43 2.24 94.87 3.44C94.78 3.77 94.48 3.92 94.03 3.92H69.49L69.25 3.05ZM80.05 3.26H83.71V27.65C83.71 27.89 82.6 28.67 80.71 28.67H80.05V3.26ZM88.78 5.48L93.43 7.19C93.31 7.55 92.92 7.79 92.23 7.73C90.43 10.55 88.21 13.13 85.96 14.9L85.6 14.66C86.65 12.41 87.91 8.72 88.78 5.48ZM117.55 2.39C117.4 2.81 116.8 3.14 115.72 2.78L116.71 2.57C114.16 5.42 108.43 9.32 104.05 11.24V10.88H105.67C105.43 13.1 104.62 14.18 103.75 14.42L102.55 10.34C102.55 10.34 103.33 10.22 103.75 9.98C106.81 8.39 111.22 3.29 112.69 0.439998L117.55 2.39ZM103.27 10.4C106.96 10.43 115.96 10.19 125.08 9.83V10.31C120.67 11.3 113.35 12.56 104.17 13.85L103.27 10.4ZM122.44 25.04V25.88H107.44V25.04H122.44ZM120.46 16.31L122.2 14.36L125.89 17.18C125.68 17.45 125.23 17.75 124.54 17.9V27.53C124.48 27.74 122.62 28.4 121.42 28.4H120.79V16.31H120.46ZM109.33 27.41C109.33 27.77 107.71 28.61 106.18 28.61H105.64V14.78L109.54 16.31H122.41V17.18H109.33V27.41ZM118.66 5C130.84 8.12 128.77 16.28 124.9 13.94C123.85 10.91 120.91 7.4 118.39 5.24L118.66 5Z" fill="white"/>
</svg>
