<svg width="16" height="14" viewBox="0 0 16 14" fill="none" xmlns="http://www.w3.org/2000/svg">
<path d="M6.33333 12.833C6.09722 12.833 5.89917 12.753 5.73917 12.593C5.57917 12.433 5.49945 12.2352 5.5 11.9997C5.5 11.7636 5.58 11.5655 5.74 11.4055C5.9 11.2455 6.09778 11.1658 6.33333 11.1663H14.6667C14.9028 11.1663 15.1008 11.2463 15.2608 11.4063C15.4208 11.5663 15.5006 11.7641 15.5 11.9997C15.5 12.2358 15.42 12.4338 15.26 12.5938C15.1 12.7538 14.9022 12.8336 14.6667 12.833H6.33333ZM6.33333 7.83301C6.09722 7.83301 5.89917 7.75301 5.73917 7.59301C5.57917 7.43301 5.49945 7.23523 5.5 6.99968C5.5 6.76357 5.58 6.56551 5.74 6.40551C5.9 6.24551 6.09778 6.16579 6.33333 6.16634H14.6667C14.9028 6.16634 15.1008 6.24634 15.2608 6.40634C15.4208 6.56634 15.5006 6.76412 15.5 6.99968C15.5 7.23579 15.42 7.43384 15.26 7.59384C15.1 7.75384 14.9022 7.83357 14.6667 7.83301H6.33333ZM6.33333 2.83301C6.09722 2.83301 5.89917 2.75301 5.73917 2.59301C5.57917 2.43301 5.49945 2.23523 5.5 1.99968C5.5 1.76356 5.58 1.56551 5.74 1.40551C5.9 1.24551 6.09778 1.16579 6.33333 1.16634H14.6667C14.9028 1.16634 15.1008 1.24634 15.2608 1.40634C15.4208 1.56634 15.5006 1.76412 15.5 1.99968C15.5 2.23579 15.42 2.43384 15.26 2.59384C15.1 2.75384 14.9022 2.83357 14.6667 2.83301H6.33333ZM2.16667 13.6663C1.70833 13.6663 1.31583 13.503 0.989168 13.1763C0.662501 12.8497 0.499446 12.4575 0.500001 11.9997C0.500001 11.5413 0.663335 11.1488 0.990001 10.8222C1.31667 10.4955 1.70889 10.3325 2.16667 10.333C2.625 10.333 3.0175 10.4963 3.34417 10.823C3.67083 11.1497 3.83389 11.5419 3.83333 11.9997C3.83333 12.458 3.67 12.8505 3.34333 13.1772C3.01667 13.5038 2.62445 13.6669 2.16667 13.6663ZM2.16667 8.66634C1.70833 8.66634 1.31583 8.50301 0.989168 8.17634C0.662501 7.84968 0.499446 7.45745 0.500001 6.99968C0.500001 6.54134 0.663335 6.14884 0.990001 5.82218C1.31667 5.49551 1.70889 5.33245 2.16667 5.33301C2.625 5.33301 3.0175 5.49634 3.34417 5.82301C3.67083 6.14968 3.83389 6.5419 3.83333 6.99968C3.83333 7.45801 3.67 7.85051 3.34333 8.17718C3.01667 8.50384 2.62445 8.6669 2.16667 8.66634ZM2.16667 3.66634C1.70833 3.66634 1.31583 3.50301 0.989168 3.17634C0.662501 2.84968 0.499446 2.45745 0.500001 1.99968C0.500001 1.54134 0.663335 1.14884 0.990001 0.822176C1.31667 0.495509 1.70889 0.332454 2.16667 0.333009C2.625 0.333009 3.0175 0.496342 3.34417 0.823009C3.67083 1.14968 3.83389 1.5419 3.83333 1.99968C3.83333 2.45801 3.67 2.85051 3.34333 3.17718C3.01667 3.50384 2.62445 3.6669 2.16667 3.66634Z" fill="#363636"/>
</svg>
