<svg width="108" height="88" viewBox="0 0 108 88" fill="none" xmlns="http://www.w3.org/2000/svg">
<path d="M59.8 -9.76548e-05C55.9 -9.76548e-05 52 -9.76548e-05 48.1 -9.76548e-05C47.5 -9.76548e-05 46.9 -9.76548e-05 46.3 -9.76548e-05C31.5 -9.76548e-05 16.6 -9.76548e-05 1.7 -9.76548e-05C0.8 -9.76548e-05 0 0.899902 0 1.8999C0 25.4999 0 49.0999 0 72.6999C0 73.6999 0.8 74.5999 1.7 74.5999C16 74.5999 30.3 74.5999 44.6 74.5999C44.6 78.1999 44.6 81.7999 44.6 85.3999C44.6 86.6999 46.1 87.8999 47.2 86.9999C48.4 85.9999 49.6 84.9999 50.8 83.9999C51.7 83.2999 52.6 82.5999 53.5 81.7999C53.7 81.5999 54.1 81.3999 54.3 81.1999C54.5 81.2999 54.6 81.3999 54.8 81.5999C55.6 82.3999 56.5 82.9999 57.4 83.6999C58.7 84.7999 60 85.8999 61.4 86.8999C62.1 87.4999 62.9 87.2999 63.3 86.6999C63.7 86.3999 63.9 85.8999 63.9 85.2999C63.9 81.6999 63.9 78.0999 63.9 74.4999C78 74.4999 92.1 74.4999 106.2 74.4999C106.7 74.4999 107.1 74.2999 107.4 73.9999C107.4 73.9999 107.4 73.9999 107.5 73.8999C107.8 73.5999 108 73.1999 108 72.5999C108 48.9999 108 25.3999 108 1.7999C108 0.799902 107.2 -0.100098 106.3 -0.100098C91.6 -0.100098 77 -0.100098 62.3 -0.100098C61.4 -9.76548e-05 60.6 -9.76548e-05 59.8 -9.76548e-05ZM44.6 70.7999C30.9 70.7999 17.1 70.7999 3.4 70.7999C3.4 48.3999 3.4 26.0999 3.4 3.6999C17.1 3.6999 30.9 3.6999 44.6 3.6999C44.6 26.0999 44.6 48.4999 44.6 70.7999ZM60.5 81.6999C58.7 80.1999 57 78.7999 55.2 77.2999C54.8 76.8999 53.9 76.8999 53.5 77.2999C51.7 78.7999 49.9 80.1999 48.1 81.6999C48.1 55.6999 48.1 29.7999 48.1 3.7999C48.1 3.7999 48.1 3.7999 48.2 3.7999C52.1 3.7999 56 3.7999 59.9 3.7999C60.1 3.7999 60.4 3.7999 60.6 3.7999C60.5 29.6999 60.5 55.6999 60.5 81.6999ZM63.9 3.7999C77.4 3.7999 90.9 3.7999 104.5 3.7999C104.5 26.1999 104.5 48.4999 104.5 70.8999C91 70.8999 77.5 70.8999 63.9 70.8999C63.9 48.4999 63.9 26.0999 63.9 3.7999Z" fill="#919191"/>
<path d="M11.2 21.3999C19.3 21.3999 27.3 21.3999 35.4 21.3999C36.9 21.3999 36.9 18.8999 35.4 18.8999C27.3 18.8999 19.3 18.8999 11.2 18.8999C9.69995 18.8999 9.69995 21.3999 11.2 21.3999Z" fill="#919191"/>
<path d="M11.2 31.8999C19.3 31.8999 27.3 31.8999 35.4 31.8999C36.9 31.8999 36.9 29.3999 35.4 29.3999C27.3 29.3999 19.3 29.3999 11.2 29.3999C9.69995 29.3999 9.69995 31.8999 11.2 31.8999Z" fill="#919191"/>
<path d="M11.2 42.3999C19.3 42.3999 27.3 42.3999 35.4 42.3999C36.9 42.3999 36.9 39.8999 35.4 39.8999C27.3 39.8999 19.3 39.8999 11.2 39.8999C9.69995 39.8999 9.69995 42.3999 11.2 42.3999Z" fill="#919191"/>
<path d="M11.2 52.8999C19.3 52.8999 27.3 52.8999 35.4 52.8999C36.9 52.8999 36.9 50.3999 35.4 50.3999C27.3 50.3999 19.3 50.3999 11.2 50.3999C9.69995 50.3999 9.69995 52.8999 11.2 52.8999Z" fill="#919191"/>
<path d="M96.8001 18.8999C88.7001 18.8999 80.7001 18.8999 72.6001 18.8999C71.1001 18.8999 71.1001 21.3999 72.6001 21.3999C80.7001 21.3999 88.7001 21.3999 96.8001 21.3999C98.3001 21.3999 98.3001 18.8999 96.8001 18.8999Z" fill="#919191"/>
<path d="M96.8001 29.3999C88.7001 29.3999 80.7001 29.3999 72.6001 29.3999C71.1001 29.3999 71.1001 31.8999 72.6001 31.8999C80.7001 31.8999 88.7001 31.8999 96.8001 31.8999C98.3001 31.8999 98.3001 29.3999 96.8001 29.3999Z" fill="#919191"/>
<path d="M96.8001 39.8999C88.7001 39.8999 80.7001 39.8999 72.6001 39.8999C71.1001 39.8999 71.1001 42.3999 72.6001 42.3999C80.7001 42.3999 88.7001 42.3999 96.8001 42.3999C98.3001 42.3999 98.3001 39.8999 96.8001 39.8999Z" fill="#919191"/>
<path d="M96.8001 50.3999C88.7001 50.3999 80.7001 50.3999 72.6001 50.3999C71.1001 50.3999 71.1001 52.8999 72.6001 52.8999C80.7001 52.8999 88.7001 52.8999 96.8001 52.8999C98.3001 52.8999 98.3001 50.3999 96.8001 50.3999Z" fill="#919191"/>
</svg>
