<svg width="39" height="48" viewBox="0 0 39 48" fill="none" xmlns="http://www.w3.org/2000/svg">
<path d="M0 25.6681C0 20.2734 0 14.9223 0 9.52764C0 6.87382 1.6532 4.52454 4.1765 3.69794C4.87258 3.48042 5.61217 3.39341 6.30825 3.3499C7.13485 3.3064 7.96145 3.3064 8.83156 3.3499C9.26661 3.3499 9.44063 3.21939 9.57115 2.82784C10.0062 1.39217 10.9633 0.478557 12.399 0.130516C12.834 0.0435052 13.2691 0 13.7041 0C17.5761 0 21.4046 0 25.2765 0C27.4953 0 28.7569 0.870104 29.4965 2.95835C29.5835 3.3064 29.7141 3.39341 30.0186 3.39341C31.1062 3.39341 32.1939 3.3499 33.238 3.43691C36.5009 3.65444 38.9372 6.30826 38.9807 9.57115C38.9807 14.0522 38.9807 18.5332 38.9807 23.0143C38.9807 29.2355 39.0242 35.4567 38.9807 41.678C38.9807 44.3318 37.719 46.2895 35.2827 47.3772C34.4996 47.7252 33.5425 47.8992 32.6724 47.8992C23.8844 47.9427 15.0963 47.9427 6.30825 47.8992C3.21939 47.9427 0.870104 46.072 0.174021 43.1137C0.0435052 42.6351 0 42.113 0 41.591C0 36.2833 0 30.9757 0 25.6681ZM8.87506 6.78681C7.87444 6.78681 6.87382 6.74331 5.8297 6.83032C5.39465 6.87382 4.91609 7.09135 4.52454 7.30888C3.61093 7.91795 3.3499 8.83156 3.3499 9.87568C3.3499 20.4039 3.3499 30.9322 3.3499 41.504C3.3499 41.6345 3.3499 41.765 3.3499 41.852C3.43691 43.5052 4.56805 44.5928 6.22124 44.5928C8.22248 44.5928 10.1802 44.5928 12.1815 44.5928C19.0118 44.5928 25.8421 44.5928 32.6724 44.5928C33.6295 44.5928 34.4126 44.2448 35.0217 43.5052C35.5002 42.8961 35.5873 42.2001 35.5873 41.4605C35.5873 30.9757 35.5873 20.4474 35.5873 9.96269C35.5873 9.70166 35.5873 9.44063 35.5438 9.1796C35.4132 8.00496 34.3691 6.91733 33.151 6.83032C32.1068 6.78681 31.0627 6.83032 30.0186 6.83032C29.9751 6.96083 29.9316 7.09135 29.8881 7.22186C29.4095 8.96207 27.9303 10.1367 26.1466 10.1367C21.6656 10.1367 17.2281 10.1802 12.747 10.1367C11.3549 10.1367 10.1802 9.48414 9.44063 8.26599C9.2231 7.78743 9.09259 7.26537 8.87506 6.78681ZM19.4903 6.74331C19.7514 6.74331 20.0124 6.74331 20.2734 6.74331C22.1441 6.74331 24.0149 6.74331 25.8856 6.74331C26.5382 6.74331 26.7557 6.61279 26.6687 5.96021C26.5817 5.26413 26.3642 4.52454 26.1466 3.87196C26.1031 3.69794 25.7986 3.52392 25.5811 3.48042C25.233 3.43691 24.8415 3.48042 24.4934 3.48042C20.839 3.48042 17.2281 3.48042 13.5736 3.48042C13.2691 3.48042 12.921 3.43691 12.7905 3.82846C12.573 4.48104 12.3555 5.13361 12.2685 5.8297C12.1815 6.6563 12.312 6.78681 13.1386 6.78681C15.3138 6.74331 17.4021 6.74331 19.4903 6.74331Z" fill="#909090"/>
<path d="M10.8764 19.8383C11.79 18.8812 12.7907 17.8371 13.7478 16.8365C14.2263 16.3579 14.7484 16.0969 15.4445 16.2709C16.6626 16.5754 17.1847 18.0546 16.3581 18.9682C14.8789 20.4909 13.4432 22.0571 11.9206 23.5363C11.268 24.1888 10.2674 24.1888 9.61478 23.5363C8.74467 22.6662 7.91807 21.7961 7.09148 20.8824C6.4389 20.1864 6.52591 19.1857 7.22199 18.5332C7.87457 17.9241 8.87519 17.9676 9.57127 18.6202C10.0063 19.0117 10.3979 19.4033 10.8764 19.8383Z" fill="#909090"/>
<path d="M10.8764 33.1945C11.703 32.3679 12.5296 31.4543 13.3997 30.5842C13.5738 30.3667 13.7913 30.1491 13.9653 29.9751C14.6614 29.4096 15.6185 29.4531 16.2276 30.0621C16.8366 30.6277 16.9237 31.6718 16.3581 32.2809C14.8789 33.8471 13.3997 35.4133 11.877 36.936C11.268 37.5885 10.2674 37.5015 9.61478 36.8925C8.74467 36.0223 7.91807 35.1522 7.09148 34.2386C6.4389 33.5426 6.52591 32.5419 7.22199 31.8894C7.87457 31.2803 8.87519 31.3238 9.57127 31.9329C10.0063 32.3679 10.3979 32.7595 10.8764 33.1945Z" fill="#909090"/>
<path d="M26.19 21.7961C24.7109 21.7961 23.2752 21.7961 21.796 21.7961C21.0129 21.7961 20.3603 21.3175 20.1428 20.6215C19.9253 19.9254 20.1428 19.1858 20.7519 18.7942C21.0564 18.5767 21.4915 18.4462 21.883 18.4462C24.7544 18.4027 27.6692 18.4027 30.5406 18.4462C31.5847 18.4462 32.3678 19.1858 32.3678 20.1429C32.3678 21.1 31.5847 21.8396 30.4971 21.8396C29.0179 21.7961 27.5822 21.7961 26.19 21.7961Z" fill="#909090"/>
<path d="M26.1467 35.1522C24.7111 35.1522 23.2754 35.1522 21.8397 35.1522C21.0566 35.1522 20.404 34.6736 20.1865 33.9775C19.969 33.2815 20.1865 32.5419 20.7956 32.1503C21.1001 31.9328 21.5352 31.8023 21.9267 31.8023C24.7981 31.7588 27.7129 31.7588 30.5843 31.8023C31.6284 31.8023 32.4115 32.5419 32.4115 33.499C32.4115 34.4561 31.6284 35.1957 30.5408 35.1957C29.0181 35.1522 27.5824 35.1522 26.1467 35.1522Z" fill="#909090"/>
</svg>
