<svg width="187" height="166" viewBox="0 0 187 166" fill="none" xmlns="http://www.w3.org/2000/svg">
<path d="M2 9.61401C2 5.409 5.409 2 9.61395 2H42.141C45.758 2 48.875 4.54498 49.6 8.08801L52.508 22.305H177.119C177.686 22.305 178.251 22.369 178.804 22.494C182.905 23.425 185.474 27.504 184.543 31.605L169.543 97.592C168.755 101.058 165.674 103.517 162.12 103.518H69.12L71.2 113.674H156.351C156.918 113.674 157.483 113.738 158.036 113.863C162.137 114.794 164.706 118.873 163.775 122.974L162.025 130.674C163.864 131.565 165.535 132.767 166.966 134.226C173.832 141.231 173.719 152.476 166.714 159.342C159.709 166.209 148.464 166.096 141.598 159.091C134.731 152.086 134.844 140.84 141.849 133.974H75.34C76.507 135.116 77.511 136.414 78.323 137.831C83.205 146.343 80.262 157.201 71.75 162.083C63.237 166.965 52.379 164.022 47.4969 155.51C42.615 146.998 45.558 136.139 54.0699 131.257L31.784 22.3H9.61395C5.41095 22.3 2.00195 18.894 2 14.69V9.61401ZM2 9.61401V9.61401Z" stroke="#B2BCCA" stroke-width="3" stroke-dasharray="12 3"/>
</svg>
