<svg width="156" height="192" viewBox="0 0 156 192" fill="none" xmlns="http://www.w3.org/2000/svg">
<path d="M8.34843 191C7.24878 191 6.09915 191 4.9995 191C1.60059 189.455 -0.0488816 187.014 0.00110243 183.177C0.00110243 127.666 0.00110243 72.1545 0.00110243 16.5935C0.00110243 15.2481 0.00110242 13.8529 0.301006 12.5074C1.80053 5.0827 8.04852 0.0498304 15.846 0C33.7403 0 51.6346 0 69.5288 0C92.9713 0 116.414 0 139.906 0C146.904 0 152.802 3.88677 154.901 10.2152C155.651 12.4078 155.851 14.8495 155.851 17.1915C155.901 72.2043 155.851 127.217 155.951 182.28C155.951 186.416 154.801 189.405 150.903 191.05C149.803 191.05 148.653 191.05 147.554 191.05C146.454 190.402 145.305 189.754 144.255 189.057C137.757 184.672 131.259 180.286 124.811 175.802C123.661 175.004 122.912 174.955 121.712 175.802C116.064 179.987 110.316 184.074 104.568 188.11C103.018 189.206 101.269 190.103 99.6192 191.05C98.6195 191.05 97.6198 191.05 96.6201 191.05C95.1706 190.053 93.6211 189.106 92.2715 187.96C87.9729 184.273 83.7243 180.536 79.4756 176.848C78.9758 176.4 78.426 176.001 77.8761 175.553C74.9771 178.044 72.2779 180.536 69.4788 182.878C66.1299 185.668 62.631 188.359 59.2321 191.1C58.2324 191.1 57.2328 191.1 56.2331 191.1C54.7835 190.253 53.284 189.505 51.9345 188.558C46.0363 184.422 40.1382 180.237 34.3401 175.951C33.0405 175.004 32.1908 175.104 30.9412 175.951C23.4436 180.934 15.896 185.967 8.34843 191ZM98.7694 175.852C105.467 171.068 112.015 166.334 118.613 161.65C121.812 159.358 124.311 159.358 127.56 161.55C131.959 164.49 136.307 167.48 140.706 170.47C141.256 170.819 141.806 171.167 142.605 171.666C142.605 170.769 142.605 170.221 142.605 169.673C142.605 118.746 142.605 67.8192 142.605 16.9423C142.605 13.9525 142.056 13.4044 138.957 13.4044C98.2696 13.4044 57.6326 13.4044 16.9457 13.4044C13.7467 13.4044 13.2968 13.9027 13.2968 17.0918C13.2968 67.9687 13.2968 118.796 13.2968 169.673C13.2968 170.271 13.3468 170.869 13.3968 171.666C14.1466 171.217 14.6464 170.918 15.1462 170.57C19.6448 167.53 24.0934 164.44 28.5919 161.451C31.491 159.507 34.0902 159.557 36.9393 161.5C39.3885 163.195 41.7877 164.989 44.2369 166.683C48.5355 169.772 52.8342 172.812 57.1328 175.901C57.8826 175.303 58.4824 174.755 59.0822 174.207C63.8306 170.071 68.5291 165.935 73.3276 161.799C76.1767 159.308 79.5756 159.308 82.5246 161.75C84.3241 163.244 86.1235 164.839 87.8729 166.384C91.4718 169.523 95.0706 172.662 98.7694 175.852Z" fill="#909090"/>
<path d="M77.8761 48.8837C66.1798 48.8837 54.4336 48.8837 42.7374 48.8837C37.689 48.8837 34.39 44.3989 36.0895 39.9142C37.0892 37.2732 39.4384 35.6288 42.4375 35.5291C44.6367 35.4793 46.7861 35.5291 48.9854 35.5291C70.2285 35.5291 91.5217 35.5291 112.765 35.5291C117.064 35.5291 120.063 37.9708 120.312 41.7081C120.562 45.7942 117.613 48.8837 113.265 48.8837C103.868 48.9335 94.4208 48.8837 85.0238 48.8837C82.6246 48.8837 80.2253 48.8837 77.8761 48.8837Z" fill="#909090"/>
<path d="M78.026 84.3629C66.1298 84.3629 54.2336 84.3629 42.2875 84.3629C38.9385 84.3629 36.1894 82.0209 35.6896 78.8816C35.1397 75.6924 36.9392 72.5033 40.0382 71.5066C41.1378 71.1578 42.3874 71.108 43.5371 71.108C66.4797 71.108 89.4224 71.108 112.365 71.108C112.965 71.108 113.615 71.108 114.214 71.1578C117.413 71.4568 119.963 73.9483 120.212 77.0378C120.512 80.3266 118.513 83.2666 115.364 84.1137C114.464 84.3629 113.515 84.3629 112.565 84.3629C101.119 84.3629 89.5723 84.3629 78.026 84.3629Z" fill="#909090"/>
<path d="M60.1818 106.687C66.2298 106.687 72.2779 106.637 78.326 106.687C81.275 106.737 83.6243 108.73 84.374 111.57C85.1238 114.311 84.1241 117.251 81.6749 118.696C80.4753 119.394 78.9758 119.842 77.6262 119.842C65.9799 119.942 54.3337 119.892 42.6874 119.892C38.5387 119.892 35.6396 117.101 35.6396 113.314C35.6396 109.428 38.5387 106.687 42.7874 106.637C48.5855 106.587 54.3836 106.637 60.1818 106.687C60.1818 106.637 60.1818 106.637 60.1818 106.687Z" fill="#909090"/>
</svg>
