<svg width="94" height="125" viewBox="0 0 94 125" fill="none" xmlns="http://www.w3.org/2000/svg">
<path d="M83.9187 125C59.279 125 34.6393 125 10.0323 125C9.9343 124.935 9.83626 124.837 9.73822 124.804C3.39857 123.273 0 119.003 0 112.452C0 94.6901 0 76.9278 0 59.1655C0 51.9303 5.06518 46.9438 12.3198 46.9112C13.3982 46.9112 14.4766 46.9112 15.6531 46.9112C15.6531 41.8595 15.6204 36.9383 15.6857 32.017C15.7184 29.9637 15.8491 27.8779 16.1759 25.8246C18.7902 9.49636 35.1622 -2.26911 51.5668 0.370788C67.2852 2.91291 78.2979 15.7865 78.3306 31.6585C78.3306 36.2864 78.3306 40.9144 78.3306 45.575C78.3306 45.9986 78.3306 46.4223 78.3306 46.9438C79.8338 46.9438 81.1737 46.9112 82.5135 46.9438C88.7551 47.1067 93.9183 52.1258 93.951 58.3182C94.0163 76.7323 94.0163 95.1464 93.951 113.56C93.951 118.384 90.7812 122.621 86.2388 124.25C85.4872 124.544 84.7029 124.739 83.9187 125ZM67.8408 46.846C67.8408 42.7721 67.8735 38.796 67.8408 34.8198C67.8081 32.4406 67.8735 29.9963 67.514 27.6497C65.8801 16.7968 54.8674 8.87712 43.9854 10.6696C33.3649 12.4296 26.1756 20.8055 26.1429 31.5281C26.1102 35.5368 26.1429 39.5781 26.1429 43.5869C26.1429 44.6298 26.1429 45.6727 26.1429 46.7808C40.0313 46.846 53.8543 46.846 67.8408 46.846ZM41.7959 93.5494C41.7959 94.2338 41.7959 94.9182 41.7959 95.6352C41.7959 96.9063 41.7633 98.1448 41.8286 99.4158C41.992 102.056 44.2468 104.142 46.9592 104.174C49.6715 104.207 52.0897 102.088 52.1551 99.3832C52.2531 95.7982 52.2204 92.2457 52.1877 88.6607C52.1877 87.6503 52.4165 86.9985 53.2988 86.3467C57.1222 83.5112 58.462 78.59 56.6974 74.2553C54.9001 69.8881 50.4558 67.2482 45.7174 67.8348C41.5018 68.3563 38.0379 71.3221 36.9595 75.4286C35.8484 79.6003 37.2863 83.8698 40.8483 86.4445C41.5999 86.9985 41.8613 87.5526 41.8286 88.4325C41.7306 90.1273 41.7959 91.8546 41.7959 93.5494Z" fill="#909090"/>
</svg>
