<svg width="48" height="48" viewBox="0 0 48 48" fill="none" xmlns="http://www.w3.org/2000/svg">
<g clip-path="url(#clip0_326_202)">
<path d="M0 26.3428C0 21.8372 0 17.3015 0 12.7959C0 9.16137 2.10263 6.21769 5.40676 5.16638C6.1577 4.92608 6.93867 4.77589 7.71965 4.77589C12.6758 4.74585 17.6621 4.74585 22.6183 4.74585C23.9099 4.74585 24.9612 5.64698 25.1114 6.81844C25.2616 8.08002 24.5407 9.19141 23.3091 9.49178C23.0688 9.55186 22.7985 9.55186 22.5282 9.55186C17.7522 9.55186 12.9762 9.55186 8.20025 9.55186C6.00751 9.55186 4.83605 10.7534 4.83605 12.9161C4.83605 21.8673 4.83605 30.8485 4.83605 39.7997C4.83605 41.9624 6.00751 43.1338 8.17021 43.1338C17.1214 43.1338 26.0726 43.1338 35.0538 43.1338C37.2165 43.1338 38.418 41.9323 38.418 39.7396C38.418 34.2127 38.418 28.6858 38.418 23.1589C38.418 21.657 39.3792 20.6057 40.7609 20.5756C42.2028 20.5756 43.224 21.627 43.224 23.1288C43.224 28.8059 43.2541 34.483 43.224 40.1601C43.194 44.4855 39.7997 47.9098 35.3542 47.9398C26.1927 47.9999 17.0313 47.9699 7.86984 47.9398C3.90488 47.9098 0.901126 45.3566 0.12015 41.4517C0 40.9111 0 40.3403 0 39.7696C0 35.294 0 30.8184 0 26.3428Z" fill="#6A6A6A"/>
<path d="M39.6196 4.806C39.4093 4.806 39.2291 4.806 39.0188 4.806C36.4956 4.806 33.9725 4.806 31.4193 4.806C29.6771 4.806 28.5958 3.57446 28.8361 1.95243C28.9863 0.991231 29.7973 0.180217 30.7585 0.0300293C30.7885 0.0300293 30.8186 0.0300293 30.8786 0.0300293C35.8649 0.0300293 40.8811 0.0300293 45.8674 0.0300293C46.6784 0.0300293 47.2791 0.51063 47.6696 1.20149C47.8198 1.47183 47.94 1.80224 47.94 2.10262C47.97 7.08885 48 12.0751 47.94 17.0613C47.9099 18.8936 45.7172 19.8248 44.2153 18.7735C43.6446 18.383 43.3142 17.8423 43.2241 17.1514C43.194 16.8811 43.194 16.6408 43.194 16.3705C43.194 13.9074 43.194 11.4743 43.194 9.01126C43.194 8.80099 43.194 8.62077 43.194 8.29035C42.9537 8.53065 42.8035 8.65081 42.6834 8.77096C36.2854 15.169 29.9174 21.5369 23.5194 27.9349C22.7985 28.6558 21.9875 29.0463 20.9362 28.7459C19.2241 28.2653 18.6233 26.2228 19.7647 24.8711C19.9149 24.6909 20.0651 24.5407 20.2453 24.3905C26.5833 18.0526 32.9212 11.7146 39.2291 5.40675C39.3793 5.25656 39.5595 5.16645 39.7097 5.01626C39.6796 4.92615 39.6496 4.86607 39.6196 4.806Z" fill="#6A6A6A"/>
</g>
<defs>
<clipPath id="clip0_326_202">
<rect width="48" height="48" fill="white"/>
</clipPath>
</defs>
</svg>
