<svg width="17" height="14" viewBox="0 0 17 14" fill="none" xmlns="http://www.w3.org/2000/svg">
<path d="M15.9094 6.61979C14.4971 3.86432 11.7013 2 8.5 2C5.29869 2 2.50207 3.86563 1.09061 6.62005C1.03104 6.73789 1 6.86809 1 7.00013C1 7.13217 1.03104 7.26237 1.09061 7.38021C2.50285 10.1357 5.29869 12 8.5 12C11.7013 12 14.4979 10.1344 15.9094 7.37995C15.969 7.26211 16 7.13191 16 6.99987C16 6.86783 15.969 6.73763 15.9094 6.61979ZM8.5 10.75C7.75832 10.75 7.03329 10.5301 6.41661 10.118C5.79992 9.70596 5.31927 9.12029 5.03545 8.43506C4.75162 7.74984 4.67735 6.99584 4.82205 6.26841C4.96674 5.54098 5.3239 4.8728 5.84834 4.34835C6.37279 3.8239 7.04098 3.46675 7.76841 3.32206C8.49584 3.17736 9.24984 3.25162 9.93507 3.53545C10.6203 3.81928 11.206 4.29993 11.618 4.91661C12.0301 5.5333 12.25 6.25832 12.25 7C12.2502 7.49252 12.1534 7.98027 11.965 8.43535C11.7767 8.89043 11.5005 9.30392 11.1522 9.65218C10.8039 10.0005 10.3904 10.2767 9.93535 10.465C9.48027 10.6534 8.99253 10.7502 8.5 10.75ZM8.5 4.5C8.27686 4.50312 8.05515 4.53632 7.84088 4.5987C8.0175 4.83872 8.10226 5.13408 8.07978 5.43124C8.0573 5.72839 7.92908 6.00764 7.71836 6.21836C7.50764 6.42908 7.22838 6.5573 6.93123 6.57978C6.63408 6.60226 6.33871 6.5175 6.09869 6.34089C5.96202 6.84442 5.98669 7.37814 6.16924 7.86693C6.35178 8.35571 6.68301 8.77494 7.1163 9.06561C7.54959 9.35629 8.06313 9.50377 8.58463 9.48729C9.10613 9.47082 9.60933 9.29122 10.0234 8.97378C10.4375 8.65634 10.7416 8.21703 10.8929 7.7177C11.0443 7.21838 11.0352 6.68416 10.867 6.19025C10.6988 5.69635 10.38 5.26761 9.95538 4.9644C9.53076 4.66119 9.02176 4.49877 8.5 4.5Z" fill="#525252"/>
</svg>
