<svg width="17" height="16" viewBox="0 0 17 16" fill="none" xmlns="http://www.w3.org/2000/svg">
<path d="M8.99546 0.303942L11.1941 4.69764C11.2746 4.8584 11.4302 4.96998 11.6102 4.99568L16.5264 5.7003C16.9795 5.7653 17.1605 6.31467 16.8325 6.62999L13.2751 10.05C13.145 10.1752 13.0855 10.3556 13.1162 10.5324L13.956 15.3616C14.0335 15.8069 13.5596 16.1464 13.1542 15.9362L8.75721 13.656C8.59609 13.5726 8.40379 13.5726 8.24284 13.656L3.84565 15.9362C3.44039 16.1464 2.9666 15.8069 3.0439 15.3616L3.88366 10.5324C3.91451 10.3556 3.85503 10.1752 3.72477 10.05L0.167502 6.62999C-0.16045 6.31467 0.0203912 5.7653 0.473685 5.7003L5.38984 4.99568C5.56988 4.96998 5.72544 4.8584 5.80592 4.69764L8.00443 0.303942C8.20722 -0.101314 8.79283 -0.101314 8.99546 0.303942Z" fill="#F9BF4E"/>
</svg>
