<svg width="17" height="16" viewBox="0 0 17 16" fill="none" xmlns="http://www.w3.org/2000/svg">
<path d="M10.5234 5.03327L10.5235 5.03345C10.7153 5.41652 11.0832 5.67791 11.5038 5.73809C11.5039 5.73811 11.5041 5.73813 11.5042 5.73815L16.0067 6.38348L12.7553 9.50933L12.755 9.50959C12.4471 9.80596 12.3036 10.2363 12.3773 10.6607L12.3773 10.6609L13.1471 15.0877L9.10248 12.9902L9.10198 12.9899C8.72475 12.7947 8.27522 12.7945 7.89778 12.9901L7.89758 12.9902L3.85279 15.0877L4.6225 10.6613C4.6225 10.6613 4.62251 10.6612 4.62252 10.6612C4.62254 10.6611 4.62255 10.661 4.62257 10.6609C4.69653 10.2362 4.55285 9.80565 4.24449 9.50927L0.993267 6.38349L5.49583 5.73815C5.49586 5.73815 5.4959 5.73814 5.49594 5.73814C5.49604 5.73812 5.49615 5.73811 5.49625 5.73809C5.91689 5.67791 6.28479 5.41647 6.47657 5.03338L6.47664 5.03325L8.49995 0.989688L10.5234 5.03327ZM3.50033 15.2704C3.50045 15.2704 3.50056 15.2703 3.50068 15.2702L3.50039 15.2704L3.50033 15.2704ZM8.32475 0.639571L8.32487 0.639805C8.32479 0.639655 8.32472 0.639505 8.32464 0.639355L8.32475 0.639571Z" stroke="#F9BF4E" stroke-width="1.5"/>
</svg>
