<svg width="15" height="15" viewBox="0 0 15 15" fill="none" xmlns="http://www.w3.org/2000/svg">
<path d="M9.75202 8.15789C10.8506 7.45614 11.583 6.26316 11.583 4.91228C11.583 2.75439 9.75202 1 7.51824 1C5.28446 1 3.45349 2.75439 3.45349 4.89474C3.45349 6.24561 4.18588 7.4386 5.28446 8.14035C2.79435 9.03509 1 11.3158 1 14H2.08027C2.08027 11.1404 4.51546 8.80702 7.49993 8.80702C10.4844 8.80702 12.9196 11.1404 12.9196 14H13.9999C14.0182 11.3158 12.2421 9.03509 9.75202 8.15789ZM7.51824 7.75439C5.87037 7.75439 4.53376 6.47368 4.53376 4.89474C4.53376 3.31579 5.87037 2.05263 7.51824 2.05263C9.16611 2.05263 10.5027 3.33333 10.5027 4.91228C10.5027 6.49123 9.1478 7.75439 7.51824 7.75439Z" fill="#404040" stroke="#404040" stroke-width="0.5" stroke-miterlimit="10"/>
</svg>
